<svg xmlns="http://www.w3.org/2000/svg" width="105" height="105" viewBox="0 0 105 105">
    <defs>
        <clipPath id="clip-path">
            <path id="Rectangle_158" fill="#fff" stroke="#707070" d="M0 0H105V105H0z" transform="translate(405 615)"/>
        </clipPath>
        <style>
            .cls-3{fill:#fff}
        </style>
    </defs>
    <g id="Mask_Group_32" clip-path="url(#clip-path)" transform="translate(-405 -615)">
        <g id="labyrinth" transform="translate(405 615)">
            <g id="Group_332">
                <g id="Group_331">
                    <path id="Path_199" d="M54.25 56a1.751 1.751 0 0 0-1.75 1.75v21a1.751 1.751 0 0 0 1.75 1.75h17.5a1.75 1.75 0 0 0 0-3.5H56V57.75A1.75 1.75 0 0 0 54.25 56z" class="cls-3"/>
                    <path id="Path_200" d="M35 68.25v-21a1.751 1.751 0 0 0-1.75-1.75h-21a1.75 1.75 0 0 0 0 3.5H31.5v17.5H12.25a1.751 1.751 0 0 0-1.75 1.75v21a1.75 1.75 0 0 0 3.5 0V70h7v31.5H7A3.5 3.5 0 0 1 3.5 98V59.5h19.25a1.75 1.75 0 1 0 0-3.5H3.5V38.5h19.25a1.75 1.75 0 1 0 0-3.5H14V22.75a1.75 1.75 0 0 0-3.5 0V35h-7V7A3.5 3.5 0 0 1 7 3.5h3.5v8.75A1.751 1.751 0 0 0 12.25 14H21v12.25a1.75 1.75 0 1 0 3.5 0v-14a1.751 1.751 0 0 0-1.75-1.75H14v-7h49V35H35V14h17.5v10.5h-7v-1.75a1.75 1.75 0 0 0-3.5 0v3.5A1.751 1.751 0 0 0 43.75 28h10.5A1.751 1.751 0 0 0 56 26.25v-14a1.751 1.751 0 0 0-1.75-1.75h-21a1.751 1.751 0 0 0-1.75 1.75v24.5a1.751 1.751 0 0 0 1.75 1.75h49a1.75 1.75 0 0 0 0-3.5H66.5V1.75A1.751 1.751 0 0 0 64.75 0H7a7.007 7.007 0 0 0-7 7v91a7.007 7.007 0 0 0 7 7h15.75a1.751 1.751 0 0 0 1.75-1.75V70h8.75A1.751 1.751 0 0 0 35 68.25z" class="cls-3"/>
                    <path id="Path_201" d="M75.25 28A1.751 1.751 0 0 0 77 26.25v-14a1.75 1.75 0 1 0-3.5 0v14A1.751 1.751 0 0 0 75.25 28z" class="cls-3"/>
                    <path id="Path_202" d="M92.75 70a1.751 1.751 0 0 0 1.75-1.75v-21a1.751 1.751 0 0 0-1.75-1.75h-38.5a1.75 1.75 0 1 0 0 3.5H91v19.25A1.751 1.751 0 0 0 92.75 70z" class="cls-3"/>
                    <path id="Path_203" d="M45.5 47.25a1.75 1.75 0 1 0-3.5 0v21a1.75 1.75 0 0 0 3.5 0z" class="cls-3"/>
                    <path id="Path_204" d="M98 0H75.25a1.75 1.75 0 0 0 0 3.5H98a3.5 3.5 0 0 1 3.5 3.5v17.5h-14V14h5.25a1.75 1.75 0 0 0 0-3.5h-7A1.751 1.751 0 0 0 84 12.25v14A1.751 1.751 0 0 0 85.75 28H91v8.75a1.75 1.75 0 1 0 3.5 0V28h7v49h-8.75a1.75 1.75 0 0 0 0 3.5h8.75v7H84V57.75A1.751 1.751 0 0 0 82.25 56h-17.5A1.751 1.751 0 0 0 63 57.75v10.5A1.751 1.751 0 0 0 64.75 70h7a1.75 1.75 0 1 0 0-3.5H66.5v-7h14v29.75A1.751 1.751 0 0 0 82.25 91h19.25v7a3.5 3.5 0 0 1-3.5 3.5H35V91h36.75a1.75 1.75 0 1 0 0-3.5h-38.5a1.751 1.751 0 0 0-1.75 1.75v14a1.751 1.751 0 0 0 1.75 1.75H98a7.007 7.007 0 0 0 7-7V7a7.007 7.007 0 0 0-7-7z" class="cls-3"/>
                    <path id="Path_205" d="M43.75 77h-10.5a1.75 1.75 0 1 0 0 3.5h10.5a1.75 1.75 0 0 0 0-3.5z" class="cls-3"/>
                </g>
            </g>
        </g>
    </g>
</svg>
