<svg xmlns="http://www.w3.org/2000/svg" width="28.179" height="36" viewBox="0 0 28.179 36">
    <path fill="#fff" fill-rule="evenodd" d="M1.445 28.057A3.021 3.021 0 0 1 0 25.484v-5.856a1.259 1.259 0 0 1 1.893-1.085l13.215 7.7a2.517 2.517 0 0 1 1.249 2.173v6.067a1.508 1.508 0 0 1-2.3 1.289zm19.7-11.118a2.517 2.517 0 0 1 1.249 2.173v12.311a1 1 0 0 1-.512.877l-2.894 1.629a.59.59 0 0 1-.116.048v-6.836a2.521 2.521 0 0 0-1.225-2.161L6.039 18.036v-7.717a1.259 1.259 0 0 1 1.893-1.084zm5.783-9.093a2.514 2.514 0 0 1 1.253 2.177v17.982a1.01 1.01 0 0 1-.528.884l-2.744 1.481V17.851a2.519 2.519 0 0 0-1.221-2.157L11.826 8.578v-7.32a1.288 1.288 0 0 1 .168-.632A1.261 1.261 0 0 1 13.715.17z"/>
</svg>
