<svg width="204" height="204" viewBox="0 0 204 204" fill="none" xmlns="http://www.w3.org/2000/svg">
    <path class="a" d="M80.6621 46.0002V158H115.862C145.462 158 162.102 143.12 162.102 112.4V91.6003C162.102 60.8802 145.462 46.0002 115.862 46.0002H80.6621ZM96.5021 60.2403H116.022C136.022 60.2403 146.262 70.3202 146.262 91.1203V112.88C146.262 133.52 136.342 143.76 116.022 143.76H96.5021V60.2403Z" fill="#FFFFFF"/>
    <path class="a" d="M40.6621 71.8091C40.6621 79.0091 46.1021 84.2891 53.1421 84.2891C60.3421 84.2891 65.6221 79.0091 65.6221 71.8091C65.6221 64.6091 60.3421 59.3291 53.1421 59.3291C46.1021 59.3291 40.6621 64.6091 40.6621 71.8091ZM40.6621 130.689C40.6621 137.889 46.1021 143.169 53.1421 143.169C60.3421 143.169 65.6221 137.889 65.6221 130.689C65.6221 123.489 60.3421 118.209 53.1421 118.209C46.1021 118.209 40.6621 123.489 40.6621 130.689Z" fill="#FFFFFF"/>
</svg>