<svg width="474" height="189" viewBox="0 0 474 189" fill="none" xmlns="http://www.w3.org/2000/svg">
<g clip-path="url(#clip0_177_6086)">
<path d="M458.211 63.9055H444.251V78.0381H458.211V63.9055Z" fill="white"/>
<path d="M458.211 47.9408H444.251V62.0734H458.211V47.9408Z" fill="white"/>
<path d="M474 63.9055H460.041V78.0381H474V63.9055Z" fill="white"/>
<path d="M474 95.8871H460.041V110.02H474V95.8871Z" fill="white"/>
<path d="M458.211 95.8871H444.251V110.02H458.211V95.8871Z" fill="white"/>
<path d="M474 111.904H460.041V126.037H474V111.904Z" fill="white"/>
<path d="M474 127.921H460.041V142.054H474V127.921Z" fill="white"/>
<path d="M458.211 127.921H444.251V142.054H458.211V127.921Z" fill="white"/>
<path d="M458.211 111.904H444.251V126.037H458.211V111.904Z" fill="white"/>
<path d="M474 143.886H460.041V158.018H474V143.886Z" fill="white"/>
<path d="M458.211 143.886H444.251V158.018H458.211V143.886Z" fill="white"/>
<path d="M474 159.903H460.041V174.035H474V159.903Z" fill="white"/>
<path d="M458.211 159.903H444.251V174.035H458.211V159.903Z" fill="white"/>
<path d="M458.211 175.867H444.251V190H458.211V175.867Z" fill="white"/>
<path d="M442.369 159.903H428.41V174.035H442.369V159.903Z" fill="white"/>
<path d="M426.527 159.903H412.568V174.035H426.527V159.903Z" fill="white"/>
<path d="M442.369 175.867H428.41V190H442.369V175.867Z" fill="white"/>
<path d="M426.527 175.867H412.568V190H426.527V175.867Z" fill="white"/>
<path d="M410.686 159.903H396.726V174.035H410.686V159.903Z" fill="white"/>
<path d="M410.686 175.867H396.726V190H410.686V175.867Z" fill="white"/>
<path d="M442.369 127.921H428.41V142.054H442.369V127.921Z" fill="white"/>
<path d="M442.369 111.904H428.41V126.037H442.369V111.904Z" fill="white"/>
<path d="M426.527 127.921H412.568V142.054H426.527V127.921Z" fill="white"/>
<path d="M426.527 111.904H412.568V126.037H426.527V111.904Z" fill="white"/>
<path d="M410.686 127.921H396.726V142.054H410.686V127.921Z" fill="white"/>
<path d="M410.686 111.904H396.726V126.037H410.686V111.904Z" fill="white"/>
<path d="M394.844 127.921H380.885V142.054H394.844V127.921Z" fill="white"/>
<path d="M394.844 111.904H380.885V126.037H394.844V111.904Z" fill="white"/>
<path d="M379.055 111.904H365.095V126.037H379.055V111.904Z" fill="white"/>
<path d="M394.844 95.8871H380.885V110.02H394.844V95.8871Z" fill="white"/>
<path d="M379.055 95.8871H365.095V110.02H379.055V95.8871Z" fill="white"/>
<path d="M474 79.9224H460.041V94.0551H474V79.9224Z" fill="white"/>
<path d="M458.211 79.9224H444.251V94.0551H458.211V79.9224Z" fill="white"/>
<path d="M394.844 79.9224H380.885V94.0551H394.844V79.9224Z" fill="white"/>
<path d="M379.055 79.9224H365.095V94.0551H379.055V79.9224Z" fill="white"/>
<path d="M379.055 63.9055H365.095V78.0381H379.055V63.9055Z" fill="white"/>
<path d="M394.844 63.9055H380.885V78.0381H394.844V63.9055Z" fill="white"/>
<path d="M394.844 47.9408H380.885V62.0734H394.844V47.9408Z" fill="white"/>
<path d="M410.686 63.9055H396.726V78.0381H410.686V63.9055Z" fill="white"/>
<path d="M410.686 47.9408H396.726V62.0734H410.686V47.9408Z" fill="white"/>
<path d="M426.527 63.9055H412.568V78.0381H426.527V63.9055Z" fill="white"/>
<path d="M426.527 47.9408H412.568V62.0734H426.527V47.9408Z" fill="white"/>
<path d="M442.369 63.9055H428.41V78.0381H442.369V63.9055Z" fill="white"/>
<path d="M442.369 47.9408H428.41V62.0734H442.369V47.9408Z" fill="white"/>
<path d="M299.899 79.9224H285.94V94.0551H299.899V79.9224Z" fill="white"/>
<path d="M315.741 63.9055H301.781V78.0381H315.741V63.9055Z" fill="white"/>
<path d="M315.741 47.9408H301.781V62.0734H315.741V47.9408Z" fill="white"/>
<path d="M331.53 63.9055H317.571V78.0381H331.53V63.9055Z" fill="white"/>
<path d="M331.53 47.9408H317.571V62.0734H331.53V47.9408Z" fill="white"/>
<path d="M347.372 63.9055H333.412V78.0381H347.372V63.9055Z" fill="white"/>
<path d="M347.372 47.9408H333.412V62.0734H347.372V47.9408Z" fill="white"/>
<path d="M284.058 63.9055H270.098V78.0381H284.058V63.9055Z" fill="white"/>
<path d="M299.899 63.9055H285.94V78.0381H299.899V63.9055Z" fill="white"/>
<path d="M284.058 79.9224H270.098V94.0551H284.058V79.9224Z" fill="white"/>
<path d="M284.058 95.8871H270.098V110.02H284.058V95.8871Z" fill="white"/>
<path d="M284.058 111.904H270.098V126.037H284.058V111.904Z" fill="white"/>
<path d="M284.058 127.921H270.098V142.054H284.058V127.921Z" fill="white"/>
<path d="M268.216 127.921H254.257V142.054H268.216V127.921Z" fill="white"/>
<path d="M268.216 111.904H254.257V126.037H268.216V111.904Z" fill="white"/>
<path d="M268.216 95.8871H254.257V110.02H268.216V95.8871Z" fill="white"/>
<path d="M268.216 79.9224H254.257V94.0551H268.216V79.9224Z" fill="white"/>
<path d="M268.216 63.9055H254.257V78.0381H268.216V63.9055Z" fill="white"/>
<path d="M284.058 47.9408H270.098V62.0734H284.058V47.9408Z" fill="white"/>
<path d="M268.216 47.9408H254.257V62.0734H268.216V47.9408Z" fill="white"/>
<path d="M173.271 15.017H159.311V29.1496H173.271V15.017Z" fill="white"/>
<path d="M173.271 -1H159.311V13.1326H173.271V-1Z" fill="white"/>
<path d="M189.06 -1H175.101V13.1326H189.06V-1Z" fill="white"/>
<path d="M204.902 -1H190.942V13.1326H204.902V-1Z" fill="white"/>
<path d="M204.902 15.017H190.942V29.1496H204.902V15.017Z" fill="white"/>
<path d="M189.06 15.017H175.101V29.1496H189.06V15.017Z" fill="white"/>
<path d="M220.743 -1H206.784V13.1326H220.743V-1Z" fill="white"/>
<path d="M236.585 15.017H222.626V29.1496H236.585V15.017Z" fill="white"/>
<path d="M220.743 15.017H206.784V29.1496H220.743V15.017Z" fill="white"/>
<path d="M220.743 30.9816H206.784V45.1143H220.743V30.9816Z" fill="white"/>
<path d="M236.585 30.9816H222.626V45.1143H236.585V30.9816Z" fill="white"/>
<path d="M236.585 46.9986H222.626V61.1313H236.585V46.9986Z" fill="white"/>
<path d="M220.743 46.9986H206.784V61.1313H220.743V46.9986Z" fill="white"/>
<path d="M220.743 62.9633H206.784V77.0959H220.743V62.9633Z" fill="white"/>
<path d="M236.585 62.9633H222.626V77.0959H236.585V62.9633Z" fill="white"/>
<path d="M236.585 78.9803H222.626V93.1129H236.585V78.9803Z" fill="white"/>
<path d="M220.743 78.9803H206.784V93.1129H220.743V78.9803Z" fill="white"/>
<path d="M220.743 94.9449H206.784V109.078H220.743V94.9449Z" fill="white"/>
<path d="M236.585 94.9449H222.626V109.078H236.585V94.9449Z" fill="white"/>
<path d="M236.585 110.962H222.626V125.095H236.585V110.962Z" fill="white"/>
<path d="M220.743 110.962H206.784V125.095H220.743V110.962Z" fill="white"/>
<path d="M220.743 126.979H206.784V141.112H220.743V126.979Z" fill="white"/>
<path d="M204.902 126.979H190.942V141.112H204.902V126.979Z" fill="white"/>
<path d="M204.902 110.962H190.942V125.095H204.902V110.962Z" fill="white"/>
<path d="M189.06 126.979H175.101V141.112H189.06V126.979Z" fill="white"/>
<path d="M189.06 110.962H175.101V125.095H189.06V110.962Z" fill="white"/>
<path d="M173.271 126.979H159.311V141.112H173.271V126.979Z" fill="white"/>
<path d="M173.271 110.962H159.311V125.095H173.271V110.962Z" fill="white"/>
<path d="M157.429 126.979H143.47V141.112H157.429V126.979Z" fill="white"/>
<path d="M157.429 110.962H143.47V125.095H157.429V110.962Z" fill="white"/>
<path d="M157.429 94.9449H143.47V109.078H157.429V94.9449Z" fill="white"/>
<path d="M157.429 78.9803H143.47V93.1129H157.429V78.9803Z" fill="white"/>
<path d="M157.429 62.9633H143.47V77.0959H157.429V62.9633Z" fill="white"/>
<path d="M157.429 46.9986H143.47V61.1313H157.429V46.9986Z" fill="white"/>
<path d="M157.429 30.9816H143.47V45.1143H157.429V30.9816Z" fill="white"/>
<path d="M157.429 15.017H143.47V29.1496H157.429V15.017Z" fill="white"/>
<path d="M157.429 -1H143.47V13.1326H157.429V-1Z" fill="white"/>
<path d="M141.588 15.017H127.628V29.1496H141.588V15.017Z" fill="white"/>
<path d="M141.588 30.9816H127.628V45.1143H141.588V30.9816Z" fill="white"/>
<path d="M141.588 46.9986H127.628V61.1313H141.588V46.9986Z" fill="white"/>
<path d="M141.588 62.9633H127.628V77.0959H141.588V62.9633Z" fill="white"/>
<path d="M141.588 78.9803H127.628V93.1129H141.588V78.9803Z" fill="white"/>
<path d="M141.588 94.9449H127.628V109.078H141.588V94.9449Z" fill="white"/>
<path d="M141.588 110.962H127.628V125.095H141.588V110.962Z" fill="white"/>
<path d="M30.801 126.979H16.8416V141.112H30.801V126.979Z" fill="white"/>
<path d="M46.5904 126.979H32.6309V141.112H46.5904V126.979Z" fill="white"/>
<path d="M62.432 126.979H48.4725V141.112H62.432V126.979Z" fill="white"/>
<path d="M78.2736 126.979H64.3141V141.112H78.2736V126.979Z" fill="white"/>
<path d="M94.1152 126.979H80.1558V141.112H94.1152V126.979Z" fill="white"/>
<path d="M109.905 110.962H95.9451V125.095H109.905V110.962Z" fill="white"/>
<path d="M94.1152 110.962H80.1558V125.095H94.1152V110.962Z" fill="white"/>
<path d="M78.2736 110.962H64.3141V125.095H78.2736V110.962Z" fill="white"/>
<path d="M62.432 110.962H48.4725V125.095H62.432V110.962Z" fill="white"/>
<path d="M46.5904 110.962H32.6309V125.095H46.5904V110.962Z" fill="white"/>
<path d="M30.801 110.962H16.8416V125.095H30.801V110.962Z" fill="white"/>
<path d="M14.9594 110.962H1V125.095H14.9594V110.962Z" fill="white"/>
<path d="M14.9594 94.9449H1V109.078H14.9594V94.9449Z" fill="white"/>
<path d="M30.801 94.9449H16.8416V109.078H30.801V94.9449Z" fill="white"/>
<path d="M94.1152 94.9449H80.1558V109.078H94.1152V94.9449Z" fill="white"/>
<path d="M109.905 94.9449H95.9451V109.078H109.905V94.9449Z" fill="white"/>
<path d="M109.905 78.9803H95.9451V93.1129H109.905V78.9803Z" fill="white"/>
<path d="M94.1152 78.9803H80.1558V93.1129H94.1152V78.9803Z" fill="white"/>
<path d="M30.801 78.9803H16.8416V93.1129H30.801V78.9803Z" fill="white"/>
<path d="M14.9594 78.9803H1V93.1129H14.9594V78.9803Z" fill="white"/>
<path d="M14.9594 62.9633H1V77.0959H14.9594V62.9633Z" fill="white"/>
<path d="M30.801 62.9633H16.8416V77.0959H30.801V62.9633Z" fill="white"/>
<path d="M46.5904 62.9633H32.6309V77.0959H46.5904V62.9633Z" fill="white"/>
<path d="M62.432 62.9633H48.4725V77.0959H62.432V62.9633Z" fill="white"/>
<path d="M78.2736 62.9633H64.3141V77.0959H78.2736V62.9633Z" fill="white"/>
<path d="M94.1152 62.9633H80.1558V77.0959H94.1152V62.9633Z" fill="white"/>
<path d="M109.905 62.9633H95.9451V77.0959H109.905V62.9633Z" fill="white"/>
<path d="M109.905 46.9986H95.9451V61.1313H109.905V46.9986Z" fill="white"/>
<path d="M109.905 30.9816H95.9451V45.1143H109.905V30.9816Z" fill="white"/>
<path d="M109.905 15.017H95.9451V29.1496H109.905V15.017Z" fill="white"/>
<path d="M109.905 -1H95.9451V13.1326H109.905V-1Z" fill="white"/>
<path d="M94.1152 -1H80.1558V13.1326H94.1152V-1Z" fill="white"/>
<path d="M94.1152 15.017H80.1558V29.1496H94.1152V15.017Z" fill="white"/>
<path d="M94.1152 30.9816H80.1558V45.1143H94.1152V30.9816Z" fill="white"/>
<path d="M94.1152 46.9986H80.1558V61.1313H94.1152V46.9986Z" fill="white"/>
<path d="M78.2736 46.9986H64.3141V61.1313H78.2736V46.9986Z" fill="white"/>
<path d="M62.432 46.9986H48.4725V61.1313H62.432V46.9986Z" fill="white"/>
<path d="M46.5904 46.9986H32.6309V61.1313H46.5904V46.9986Z" fill="white"/>
<path d="M30.801 46.9986H16.8416V61.1313H30.801V46.9986Z" fill="white"/>
</g>
<defs>
<clipPath id="clip0_177_6086">
<rect width="474" height="189" fill="white"/>
</clipPath>
</defs>
</svg>