<svg xmlns="http://www.w3.org/2000/svg" width="29.923" height="29.91" viewBox="0 0 29.923 29.91">
    <defs>
        <style>
            .cls-1{fill:#fff}
        </style>
    </defs>
    <g id="Group_1" transform="translate(.005 -.032)">
        <path id="Path_10" d="M36.691 78.263a3.876 3.876 0 0 0 2.379-.812L33.614 72a3.89 3.89 0 0 0 3.077 6.269z" class="cls-1" transform="translate(-27.898 -61.201)"/>
        <path id="Path_11" d="M131.57 74.371a3.861 3.861 0 0 0-.814-2.371l-5.456 5.45a3.89 3.89 0 0 0 6.27-3.079z" class="cls-1" transform="translate(-106.558 -61.201)"/>
        <path id="Path_12" d="M27.754 48.164l-2.413 2.413a5.5 5.5 0 0 1-7.741 7.741l-2.644 2.644-2.644-2.644a5.5 5.5 0 0 1-7.741-7.741l-1.24-1.245-1.172-1.172a14.961 14.961 0 1 0 25.6 0z" class="cls-1" transform="translate(0 -40.927)"/>
        <path id="Path_13" d="M43.346 4.665a14.961 14.961 0 0 0-21.648 0 15.209 15.209 0 0 0-1.048 1.226l11.871 11.87L44.4 5.888a15.209 15.209 0 0 0-1.054-1.223zM32.521 1.984a12.851 12.851 0 0 1 9.2 3.811l-9.2 9.193-9.2-9.193a12.851 12.851 0 0 1 9.2-3.811z" class="cls-1" transform="translate(-17.565)"/>
    </g>
</svg>
