<?xml version="1.0" encoding="UTF-8"?>
<svg width="64px" height="66px" viewBox="0 0 64 66" version="1.1" xmlns="http://www.w3.org/2000/svg" xmlns:xlink="http://www.w3.org/1999/xlink">
    <title>Fill-20</title>
    <g id="Page-1" stroke="none" stroke-width="1" fill="none" fill-rule="evenodd">
        <g id="logotype" transform="translate(0.000000, 0.000000)" fill="#28286E" fill-rule="nonzero">
            <path d="M31.9531467,37.23225 L26.2978981,43.06423 C26.2942714,43.06753 26.2908581,43.07127 26.2865914,43.07391 C26.2727248,43.08315 26.2560848,43.08843 26.2383781,43.08843 C26.1893115,43.08843 26.1494182,43.04729 26.1494182,42.99647 C26.1494182,42.98635 26.1509115,42.97623 26.1541115,42.96699 C26.1541115,42.96677 26.1536849,42.96787 26.1536849,42.96765 L28.3053631,34.69103 C28.4888296,34.09769 28.3525097,33.42229 27.8959768,32.95171 L22.2407281,27.11951 C22.2375281,27.11577 22.2341148,27.11225 22.2313415,27.10785 C22.2225948,27.09377 22.2172615,27.07661 22.2172615,27.05835 C22.2172615,27.00753 22.2571548,26.96639 22.3064347,26.96639 C22.3164614,26.96639 22.3260614,26.96815 22.3350214,26.97123 C22.3352347,26.97145 22.3343814,26.97079 22.3343814,26.97079 L30.3604014,29.18993 C30.9355476,29.37913 31.5904803,29.23855 32.0468,28.76775 L37.7022619,22.93599 C37.7058886,22.93247 37.7093019,22.92873 37.7135686,22.92609 C37.7274352,22.91685 37.7438619,22.91157 37.7617819,22.91157 C37.8108485,22.91157 37.8507418,22.95271 37.8507418,23.00353 C37.8507418,23.01387 37.8490351,23.02377 37.8460485,23.03301 C37.8460485,23.03301 37.8464751,23.03235 37.8464751,23.03235 L35.6947969,31.30897 C35.5113304,31.90209 35.6476503,32.57771 36.1039699,33.04829 L41.7592185,38.88049 C41.7626319,38.88423 41.7660452,38.88775 41.7686052,38.89193 C41.7775652,38.90623 41.7828985,38.92339 41.7828985,38.94165 C41.7828985,38.99225 41.7427919,39.03339 41.6937253,39.03339 C41.6836986,39.03339 41.6740986,39.03185 41.6651386,39.02877 C41.6649253,39.02877 41.6657786,39.02899 41.6655653,39.02899 L33.6397586,36.81007 C33.0646124,36.62087 32.4094663,36.76167 31.9531467,37.23225 M63.7560002,32.39225 L50.2479581,18.46229 C49.7916385,17.99171 49.1367057,17.85091 48.5615595,18.04011 L39.6787936,20.49663 C39.6777269,20.49641 39.6775136,20.49509 39.6758069,20.49575 C39.6674869,20.49839 39.658527,20.49993 39.6491403,20.49993 C39.6000737,20.49993 39.5601804,20.45879 39.5601804,20.40797 C39.5601804,20.37541 39.5763937,20.34703 39.6011403,20.33075 C39.6013537,20.33053 39.600287,20.33075 39.600287,20.33075 C40.5698862,19.66569 42.0401783,18.46229 45.554842,14.83779 C45.8801751,14.50229 45.8801751,13.95801 45.554842,13.62229 L32.5893062,0.25179 C32.2639731,-0.08393 31.7361869,-0.08393 31.4108538,0.25179 L17.9028117,14.18175 C17.4464921,14.65233 17.3101722,15.32795 17.4936388,15.92107 L19.8755034,25.08121 C19.8752901,25.08231 19.8742234,25.08253 19.8746501,25.08451 C19.8774234,25.09309 19.8787034,25.10233 19.8787034,25.11179 C19.8787034,25.16261 19.8388101,25.20375 19.7895302,25.20375 C19.7581702,25.20375 19.7304369,25.18681 19.7146502,25.16129 C19.7144369,25.16129 19.7146502,25.16217 19.7146502,25.16217 C19.0697441,24.16227 17.9028117,22.64625 14.3883613,19.02175 C14.0628149,18.68603 13.5350287,18.68603 13.2096957,19.02175 L0.244159797,32.39225 C-0.081386599,32.72797 -0.081386599,33.27225 0.244159797,33.60775 L13.7519885,47.53771 C14.2083082,48.00829 14.8634543,48.14909 15.4386005,47.95989 L24.3213664,45.50337 C24.3224331,45.50359 24.3224331,45.50491 24.3243531,45.50425 C24.3326731,45.50161 24.341633,45.50007 24.3508064,45.50007 C24.4000863,45.50007 24.4399796,45.54121 24.4399796,45.59203 C24.4399796,45.62437 24.4237663,45.65297 24.3990197,45.66947 C24.3988063,45.66947 24.399873,45.66925 24.399873,45.66947 C23.4300605,46.33431 21.9599817,47.53771 18.445318,51.16221 C18.1197716,51.49793 18.1197716,52.04199 18.445318,52.37771 L31.4108538,65.74821 C31.7361869,66.08393 32.2639731,66.08393 32.5893062,65.74821 L46.0971349,51.81825 C46.5534545,51.34767 46.6899878,50.67205 46.5065212,50.07893 L44.1246566,40.91879 C44.1246566,40.91747 44.1259366,40.91747 44.1252966,40.91571 C44.1227366,40.90691 44.1214566,40.89789 44.1214566,40.88821 C44.1214566,40.83739 44.1613499,40.79625 44.2104165,40.79625 C44.2419898,40.79625 44.2697231,40.81319 44.2855098,40.83871 C44.2855098,40.83871 44.2855098,40.83783 44.2855098,40.83783 C44.9302026,41.83773 46.0971349,43.35397 49.6117987,46.97825 C49.9373451,47.31397 50.4649179,47.31397 50.7904643,46.97825 L63.7560002,33.60775 C64.0813333,33.27225 64.0813333,32.72797 63.7560002,32.39225" id="Fill-20"></path>
        </g>
    </g>
</svg>