<svg version="1.2" baseProfile="tiny" id="Capa_1" xmlns="http://www.w3.org/2000/svg" xmlns:xlink="http://www.w3.org/1999/xlink" x="0px" y="0px" viewBox="0 0 120 120" xml:space="preserve">
<g>
<path d="M62.2,116.3c-0.7,0-1.3-0.2-1.9-0.5l-0.3-0.2l-0.3,0.1c-1.4,0.4-2.8,0.6-4.3,0.6c-1.4,0-2.7-0.2-4.1-0.5l-0.3-0.1l-0.3,0.2
            c-0.5,0.3-1.2,0.5-1.8,0.5H36c-0.5,0-0.9-0.4-0.9-0.9c0-0.5,0.4-0.9,0.9-0.9h11.9l-1.9-1.4c-1.8-1.4-3.3-3.2-4.4-5.2l-0.2-0.4h-14
            c-1.1,0-1.9,0.9-1.9,1.9v3.2c0,1.1,0.9,1.9,1.9,1.9h1.8c0.5,0,0.9,0.4,0.9,0.9c0,0.5-0.4,0.9-0.9,0.9h-1.8c-2,0-3.7-1.6-3.7-3.7
            v-3.2c0-2,1.6-3.7,3.7-3.7h1.2l-0.3-1c-0.1-0.3-0.1-0.6-0.1-0.9v-3.2c0-0.3,0-0.6,0.1-0.9l0.3-1h-1.2c-2,0-3.7-1.6-3.7-3.7v-3.2
            c0-0.3,0-0.6,0.1-0.9l0.3-1H23c-2,0-3.7-1.6-3.7-3.7v-3.2c0-0.8,0.3-1.6,0.8-2.3l0.4-0.5l-0.4-0.5c-0.5-0.7-0.8-1.4-0.8-2.3v-3.2
            c0-0.8,0.3-1.6,0.8-2.3l0.4-0.5l-0.4-0.5c-0.5-0.7-0.8-1.4-0.8-2.3v-3.2c0-0.3,0-0.6,0.1-0.9l0.3-1h-1.2c-2,0-3.7-1.6-3.7-3.7v-3.2
            c0-2,1.6-3.7,3.7-3.7H40c2,0,3.7,1.6,3.7,3.7v3.2l19.4-19.4l-0.2-0.5c-2.4-5.4-6.8-9.1-13.3-11.1l-0.1,0l-0.1,0
            c-0.1,0-0.4-0.1-0.6-0.3c-0.2-0.2-0.3-0.3-0.3-0.5c-1.6-7.3-5.8-11.5-12.9-12.9c-0.3-0.1-0.6-0.3-0.7-0.6c-0.1-0.3,0-0.6,0.2-0.9
            c6.4-6.4,16-10.2,26.4-10.3c0.5,0,0.9,0.4,0.9,0.9c0,0.5-0.4,0.9-0.9,0.9c-8.8,0.2-16.9,2.9-22.9,7.8l-1.1,0.9l1.4,0.5
            c5.2,1.8,8.7,5.4,10.5,10.8l0.4,1.2l0.9-0.8c6.4-5.8,14-10.2,21.6-12.4c3.3-1,6.4-1.5,9.3-1.5c0.2,0,0.3,0,0.5,0
            c0,0,0.5-0.2,4.6,0.8c-2.2-1.5-4.2-2.4-4.2-2.4C78.2,8,73.3,6.5,68.2,5.8c-0.5-0.1-0.8-0.5-0.8-1c0.1-0.4,0.4-0.8,0.9-0.8
            c0,0,0.1,0,0.1,0c8.9,1.2,17,4.9,23.3,10.7l0.6,0.5l2.5-2.5c0.2-0.2,0.4-0.3,0.6-0.3c0.2,0,0.5,0.1,0.6,0.3c0.3,0.3,0.3,0.9,0,1.2
            l-2.5,2.5l0.5,0.6c7,7.6,11,17.8,11.1,28.7c0.1,11-3.6,21.1-10.4,27.8c-0.2,0.2-0.4,0.3-0.6,0.3c-0.1,0-0.2,0-0.2,0
            c-0.3-0.1-0.5-0.3-0.6-0.7c-1.6-7.4-5.6-11.5-12.9-12.9c-0.2,0-0.3-0.1-0.5-0.3L79.9,60c-0.1-0.1-0.2-0.4-0.2-0.6l0-0.1l0-0.1
            c-1.5-6.1-5.2-10.4-11.2-13.1L68,45.8L48.1,65.7v3.1c0,0.8-0.3,1.6-0.8,2.3l-0.4,0.5l0.4,0.5c0.5,0.7,0.8,1.4,0.8,2.3v3.2
            c0,0.8-0.3,1.6-0.8,2.3l-0.4,0.5l0.4,0.5c0.5,0.7,0.8,1.4,0.8,2.3v3.7l1.1-0.5c1.9-0.8,4-1.3,6.1-1.3c0.7,0,1.5,0.1,2.2,0.2
            l0.9,0.1v-2.3c0-0.3,0.1-0.7,0.2-1l0.2-0.8l-0.8-0.2c-1.6-0.4-2.7-1.9-2.7-3.5v-3.2c0-2,1.6-3.7,3.7-3.7h7.4c0.5,0,0.9,0.4,0.9,0.9
            c0,0.5-0.4,0.9-0.9,0.9h-7.4c-1.1,0-1.9,0.9-1.9,1.9v3.2c0,1.1,0.9,1.9,1.9,1.9h21.5c1.1,0,1.9-0.9,1.9-1.9v-3.2
            c0-1.1-0.9-1.9-1.9-1.9h-7.4c-0.5,0-0.9-0.4-0.9-0.9c0-0.5,0.4-0.9,0.9-0.9h7.4c2,0,3.7,1.6,3.7,3.7v3.2c0,0.3-0.1,0.7-0.2,1
            l-0.2,0.8l0.8,0.2c1.6,0.4,2.7,1.9,2.7,3.5v3.2c0,0.3,0,0.6-0.1,1L87,88.2l0.9,0.1c1.8,0.3,3.1,1.8,3.1,3.6v3.2
            c0,1.8-1.3,3.3-3.1,3.6L87,98.9l0.2,0.9c0.1,0.3,0.1,0.7,0.1,1v3.2c0,0.8-0.3,1.6-0.8,2.3l-0.4,0.5l0.4,0.5
            c0.5,0.7,0.8,1.4,0.8,2.3v3.2c0,2-1.6,3.7-3.7,3.7H62.2z M69.2,108c-1.1,2-2.6,3.8-4.4,5.2l-1.9,1.4h20.8c1.1,0,1.9-0.9,1.9-1.9
            v-3.2c0-1.1-0.9-1.9-1.9-1.9H69.4L69.2,108z M55.4,86.9c-7.6,0-13.8,6.2-13.8,13.8c0,7.6,6.2,13.8,13.8,13.8
            c7.6,0,13.8-6.2,13.8-13.8C69.2,93.1,63,86.9,55.4,86.9z M70.9,99.6c0,0.4,0,0.7,0,1.1c0,1.4-0.2,2.7-0.5,4.1l-0.3,1h13.5
            c1.1,0,1.9-0.9,1.9-1.9v-3.2c0-1.1-0.9-1.9-1.9-1.9H70.9L70.9,99.6z M31.9,98.8c-1.1,0-1.9,0.9-1.9,1.9v3.2c0,1.1,0.9,1.9,1.9,1.9
            h8.7l-0.3-1c-0.4-1.3-0.5-2.7-0.5-4.1c0-0.4,0-0.7,0-1.1l0.1-0.9H31.9z M67.8,91.3c1.2,1.6,2.1,3.3,2.6,5.2l0.2,0.6h16.7
            c1.1,0,1.9-0.9,1.9-1.9v-3.2c0-1.1-0.9-1.9-1.9-1.9H66.8L67.8,91.3z M27.4,90c-1.1,0-1.9,0.9-1.9,1.9v3.2c0,1.1,0.9,1.9,1.9,1.9
            h12.8l0.2-0.6c0.5-1.9,1.4-3.6,2.6-5.2l1-1.3H27.4z M60.3,85.9l0.5,0.2c1.3,0.5,2.6,1.2,3.7,2l0.2,0.2h19c1.1,0,1.9-0.9,1.9-1.9
            v-3.2c0-1.1-0.9-1.9-1.9-1.9H62.2c-1.1,0-1.9,0.9-1.9,1.9h0V85.9z M23,81.2c-1.1,0-1.9,0.9-1.9,1.9v3.2c0,1.1,0.9,1.9,1.9,1.9h21.5
            c1.1,0,1.9-0.9,1.9-1.9v-3.2c0-1.1-0.9-1.9-1.9-1.9H23z M23,72.5c-1.1,0-1.9,0.9-1.9,1.9v3.2c0,1.1,0.9,1.9,1.9,1.9h21.5
            c1.1,0,1.9-0.9,1.9-1.9v-3.2c0-1.1-0.9-1.9-1.9-1.9H23z M96.9,26.7c0.1,3-0.4,6.3-1.5,9.8c-2.2,7.5-6.6,15.2-12.4,21.5l-0.8,0.9
            l1.2,0.4c5.3,1.7,8.9,5.3,10.8,10.6l0.5,1.4l0.9-1.1c5.1-6.3,7.9-15,7.8-24.3c-0.1-6.9-1.8-13.7-5-19.6c0,0-1-2.5-3-5.5
            C96.4,22.3,96.9,26.7,96.9,26.7z M23,63.7c-1.1,0-1.9,0.9-1.9,1.9v3.2c0,1.1,0.9,1.9,1.9,1.9h21.5c1.1,0,1.9-0.9,1.9-1.9v-3.2
            c0-1.1-0.9-1.9-1.9-1.9H23z M44.5,61.8l1.2,0.4c0.5,0.2,1,0.5,1.4,0.9l0.6,0.6l18.5-18.5L65,44.7c-0.6-0.2-0.7-0.3-0.9-0.9
            l-0.3-1.4L44.5,61.8z M18.5,54.9c-1.1,0-1.9,0.9-1.9,1.9V60c0,1.1,0.9,1.9,1.9,1.9H40c1.1,0,1.9-0.9,1.9-1.9v-3.2
            c0-1.1-0.9-1.9-1.9-1.9H18.5z M66.6,43.4l1.1,0.4c6.5,2.6,10.7,6.7,12.8,12.5l0.5,1.3l0.9-1c5.5-6.1,9.7-13.5,11.8-20.7
            c2.1-7.2,1.8-13.4-1-17.4l-0.5-0.8L66.6,43.4z M81.6,13.6c-2.7,0-5.6,0.5-8.7,1.4c-7.2,2.1-14.6,6.4-20.8,11.9l-1,0.9l1.2,0.5
            C58.6,30.7,62.8,35,65,40.9l0.4,1.2L91,16.5L90.3,16C88,14.4,85.1,13.6,81.6,13.6z"></path>
</g>
</svg>