<svg xmlns="http://www.w3.org/2000/svg" viewBox="0 0 23.72 30.17"><title>favicon_1</title><path d="M15.34,13.67,15,13.31h0L14.64,13a3.84,3.84,0,0,1-5.78,0l-.35.36h0l-.35.36A4,4,0,0,1,9.5,16.48a4,4,0,0,1-1.34,2.81l.7.71a3.85,3.85,0,0,1,5.78,0l.7-.71A4,4,0,0,1,14,16.48,3.93,3.93,0,0,1,15.34,13.67Z" style="fill:#1AAF71"/><path d="M23.72,12.24v-.18c0-.39,0-.77,0-1.15s-.05-.72-.09-1.06a4,4,0,0,0-.37-1.34,3.67,3.67,0,0,0-.77-1.12,3.61,3.61,0,0,0-1.14-.76,3.86,3.86,0,0,0-1.48-.27,3.78,3.78,0,0,0-1.47.27,3.61,3.61,0,0,0-1.14.76,3.88,3.88,0,0,0-.78,1.12,4.59,4.59,0,0,0-.37,1.34c0,.34-.07.69-.09,1.06s0,.76,0,1.15v.18Z" style="fill:#1AAF71"/><circle cx="19.82" cy="3.16" r="3.16" style="fill:#1AAF71"/><path d="M7.75,12.24c0-.06,0-.12,0-.18,0-.39,0-.77,0-1.15s0-.72-.08-1.06a4.31,4.31,0,0,0-.38-1.34A3.67,3.67,0,0,0,6.5,7.39a3.61,3.61,0,0,0-1.14-.76,3.81,3.81,0,0,0-1.47-.27,3.86,3.86,0,0,0-1.48.27,3.61,3.61,0,0,0-1.14.76A3.67,3.67,0,0,0,.5,8.51,4,4,0,0,0,.13,9.85c0,.34-.08.69-.1,1.06s0,.76,0,1.15v.18Z" style="fill:#1AAF71"/><circle cx="3.85" cy="3.16" r="3.16" style="fill:#1AAF71"/><path d="M7.75,30.17c0-.06,0-.12,0-.18q0-.58,0-1.14c0-.38,0-.73-.08-1.07a4.39,4.39,0,0,0-.38-1.34,3.74,3.74,0,0,0-.77-1.11,3.31,3.31,0,0,0-1.14-.76,3.64,3.64,0,0,0-1.47-.28,3.69,3.69,0,0,0-1.48.28,3.31,3.31,0,0,0-1.14.76A3.74,3.74,0,0,0,.5,26.44a4.11,4.11,0,0,0-.37,1.34c0,.34-.08.69-.1,1.07S0,29.6,0,30v.18Z" style="fill:#1AAF71"/><circle cx="3.85" cy="21.09" r="3.16" style="fill:#1AAF71"/><path d="M23.43,30.17V30c0-.39,0-.77,0-1.14s-.05-.73-.09-1.07A4.11,4.11,0,0,0,23,26.44a3.74,3.74,0,0,0-.77-1.11A3.4,3.4,0,0,0,21,24.57a3.69,3.69,0,0,0-1.48-.28,3.6,3.6,0,0,0-1.47.28,3.31,3.31,0,0,0-1.14.76,4,4,0,0,0-.78,1.11,4.67,4.67,0,0,0-.37,1.34c0,.34-.07.69-.09,1.07s0,.75,0,1.14v.18Z" style="fill:#1AAF71"/><circle cx="19.53" cy="21.09" r="3.16" style="fill:#1AAF71"/></svg>