<svg xmlns="http://www.w3.org/2000/svg" width="28.69" height="36" viewBox="0 0 28.69 36">
    <g>
        <path fill="#fffdfc" fill-rule="evenodd" d="M108.914 58.711a1.2 1.2 0 0 0-.149-.715 1.44 1.44 0 0 0-1.758-.6 1.04 1.04 0 0 0-.327.253l-5.839 5.169v5.963s-5.751-.879-7.031-1.222a8.15 8.15 0 0 1-3.873-1.743 4.124 4.124 0 0 1-1.489-2.713v-.566l-.03-15.24 7.553 1.145a6.754 6.754 0 0 1 3.307 1.537 5.929 5.929 0 0 1 .995 1.222 2.869 2.869 0 0 1 .551 1.415v4.793a1.43 1.43 0 0 0 .327.789 1.2 1.2 0 0 0 .775.447 1.511 1.511 0 0 0 .775-.194 2.121 2.121 0 0 0 .4-.253l5.944-4.99v-5.132a6.027 6.027 0 0 0-1.341-3.307 9.362 9.362 0 0 0-4.4-3.247c-.239-.074-.432-.134-.566-.181l-6.517-1.191a10.113 10.113 0 0 0-1.518-.194 12.206 12.206 0 0 0-2.681.119c-2.176.4-5.1 1.966-5.513 4.275a3.164 3.164 0 0 0-.044.447h-.7a8.811 8.811 0 0 0-1.907.969 7.725 7.725 0 0 0-2.637 2.8A7.607 7.607 0 0 0 80.356 52v14.443a7.448 7.448 0 0 0 .03.745 11.663 11.663 0 0 0 .417 2.261 8.339 8.339 0 0 0 3.546 4.251 22.24 22.24 0 0 0 4.618 1.3 37.66 37.66 0 0 0 4.989.848 11.522 11.522 0 0 0 2.011.074 8.313 8.313 0 0 0 3.351-.745 7.863 7.863 0 0 0 3.527-3.546c.074-.149.134-.283.181-.373h.3a8.1 8.1 0 0 0 3.8-2.5 7.515 7.515 0 0 0 1.832-4.365 6.99 6.99 0 0 0 0-.789c-.044-1.654-.044-3.263-.044-4.883zm-18.935-14.54a6.907 6.907 0 0 1 1.46-.969 4.827 4.827 0 0 1 3.2-.492c.181.044.327.09.417.119l6.734 1.267a5.23 5.23 0 0 1 3.129 1.594 5.045 5.045 0 0 1 1.371 2.98 3.713 3.713 0 0 1 0 .581v2.667l-2.727 2.115v-1.326a8.168 8.168 0 0 0-.1-.819 6.971 6.971 0 0 0-1.266-2.875 8.413 8.413 0 0 0-4.1-3.054c-.134-.044-.239-.074-.327-.1l-7.925-1.389.134-.3zM99.23 71.82c-.685 1.058-2.249 1.222-3.024 1.3a7.535 7.535 0 0 1-1.073.03l-8.149-1.415-.223-.1a4.3 4.3 0 0 1-1.594-.671 4.441 4.441 0 0 1-1.267-1.349 4.845 4.845 0 0 1-.64-1.519 4.982 4.982 0 0 1-.119-1.311l-.014-14.926v-.223a4.943 4.943 0 0 1 2.131-3.456l.373-.194c.014 4.826.014 9.654.03 14.48 0 .134-.014.327 0 .566a7.242 7.242 0 0 0 1.818 4.276 9.651 9.651 0 0 0 5.214 2.9c.893.239 6.748 1.222 6.748 1.222a2.623 2.623 0 0 1-.209.387zm7.061-7.761a4.836 4.836 0 0 1-1.058 2.577 4.9 4.9 0 0 1-1.519 1.222v-4.022l2.577-2.131c.014.775.014 1.565 0 2.351z" transform="translate(-80.356 -39.931)"/>
    </g>
</svg>
