<svg xmlns="http://www.w3.org/2000/svg" width="32.864" height="32.864" viewBox="0 0 32.864 32.864">
    <path fill="#fff" fill-rule="evenodd" d="M16.432 32.864A16.432 16.432 0 1 0 0 16.432a16.432 16.432 0 0 0 16.432 16.432zM8.066 8.066A11.835 11.835 0 0 1 21.15 5.579l-2.258 2.258a8.941 8.941 0 0 0-9.721 13.811l3.357-3.357 2.045 2.045-5.423 5.422a11.958 11.958 0 0 1-1.084-.958 11.831 11.831 0 0 1 0-16.734zm3.648 19.219a11.835 11.835 0 0 0 12-20.18l-5.422 5.422 2.045 2.045 3.357-3.357a8.941 8.941 0 0 1-9.722 13.812zm4.718-12.9l2.045 2.045-2.045 2.045-2.045-2.045zm-3.9-3.9l2.045 2.045-2.045 2.045-2.045-2.045zm7.808 7.808l2.045 2.045-2.045 2.045-2.045-2.045z"/>
</svg>
