<svg xmlns="http://www.w3.org/2000/svg" width="36" height="30.369" viewBox="0 0 36 30.369">
    <path fill="#fff" d="M32.789 52.26a7.539 7.539 0 0 1-5.117-3.944c-.373-.853-.373-1.066-.426-5.383-.053-5.01 0-5.543.906-6.929a8.5 8.5 0 0 1 7.089-3.411 8.107 8.107 0 0 1 6.076 2.452c1.386 1.492 1.546 2.079 1.652 5.436.053 2.345 0 2.772-.16 3.091l-.213.373H31.35l.053 1.332c.053 1.706.426 2.345 1.706 2.931a3.725 3.725 0 0 0 2.185.426 3.451 3.451 0 0 0 2.132-.426 8.123 8.123 0 0 0 1.226-.853l.426-.426.8.426c.426.213 1.279.693 1.812 1.013l1.013.586-.266.48a7.879 7.879 0 0 1-2.612 2.185 10.864 10.864 0 0 1-7.035.64zm6.129-11.886a4.057 4.057 0 0 0-.426-2.239 2.835 2.835 0 0 0-1.226-.906 5 5 0 0 0-4.957.48 2.442 2.442 0 0 0-.906 2.132v.746h3.731a19.808 19.808 0 0 0 3.784-.212zm-15.776.533c-2.612-.693-4.69-2.079-5.436-3.731a6.255 6.255 0 0 1-.32-3.571c.373-1.279 1.759-3.251 5.81-8.155 2.239-2.665 2.772-3.251 3.091-3.251a.585.585 0 0 1 .48.213 8 8 0 0 1-.746 2.132 23.265 23.265 0 0 0-1.865 5.863c-.053.853-.053 1.013.266 1.492a3.2 3.2 0 0 0 2.612 1.173l1.066.053-.8.906a7.673 7.673 0 0 0-1.972 5.756v1.492H24.9c-.266-.052-1.012-.211-1.758-.371zm22.119-1.119a7.6 7.6 0 0 0-1.972-5.756l-.8-.906 1.066-.053a3.056 3.056 0 0 0 2.612-1.173c.32-.48.32-.64.266-1.492a23.265 23.265 0 0 0-1.865-5.863 10.991 10.991 0 0 1-.746-2.132.585.585 0 0 1 .48-.213c.32 0 .853.586 3.091 3.251 3.3 4 4.584 5.65 5.277 6.982a3.672 3.672 0 0 1 .586 2.505 4.017 4.017 0 0 1-.373 2.239c-.8 1.652-2.985 3.145-5.65 3.784-2.079.48-1.972.533-1.972-1.173z" transform="translate(-17.256 -22.2)"/>
</svg>
