<?xml version="1.0" encoding="UTF-8"?> <!-- Generator: Adobe Illustrator 25.0.0, SVG Export Plug-In . SVG Version: 6.00 Build 0) --> <svg xmlns="http://www.w3.org/2000/svg" xmlns:xlink="http://www.w3.org/1999/xlink" version="1.1" id="Layer_1" x="0px" y="0px" viewBox="0 0 639.2 639.2" style="enable-background:new 0 0 639.2 639.2;" xml:space="preserve"> <style type="text/css"> .st0{fill:url(#SVGID_1_);} .st1{fill:url(#SVGID_2_);} .st2{fill:url(#SVGID_3_);} .st3{fill:url(#SVGID_4_);} </style> <g id="Layer_1_1_"> <g> <linearGradient id="SVGID_1_" gradientUnits="userSpaceOnUse" x1="-12.9476" y1="215.3654" x2="432.2272" y2="519.9587" gradientTransform="matrix(1 0 0 -1 0 638.4661)"> <stop offset="0.1861" style="stop-color:#009BB3"></stop> <stop offset="0.4463" style="stop-color:#008B73"></stop> <stop offset="0.5401" style="stop-color:#008B73"></stop> <stop offset="1" style="stop-color:#E8663D"></stop> </linearGradient> <path class="st0" d="M190.3,362.8c18.7,0,35.9-6.3,49.7-16.9l-114-114c-10.7,13.7-16.9,31-16.9,49.7 C109.1,326.3,145.5,362.8,190.3,362.8z"></path> <linearGradient id="SVGID_2_" gradientUnits="userSpaceOnUse" x1="89.666" y1="65.3916" x2="534.8408" y2="369.985" gradientTransform="matrix(1 0 0 -1 0 638.4661)"> <stop offset="0.1861" style="stop-color:#009BB3"></stop> <stop offset="0.4463" style="stop-color:#008B73"></stop> <stop offset="0.5401" style="stop-color:#008B73"></stop> <stop offset="1" style="stop-color:#E8663D"></stop> </linearGradient> <path class="st1" d="M529.2,281.5c0-18.7-6.3-35.9-16.9-49.7l-114,113.9c13.7,10.7,31,16.9,49.7,16.9 C492.8,362.8,529.2,326.3,529.2,281.5z"></path> <linearGradient id="SVGID_3_" gradientUnits="userSpaceOnUse" x1="52.5859" y1="119.5855" x2="497.7608" y2="424.1789" gradientTransform="matrix(1 0 0 -1 0 638.4661)"> <stop offset="0.1861" style="stop-color:#009BB3"></stop> <stop offset="0.4463" style="stop-color:#008B73"></stop> <stop offset="0.5401" style="stop-color:#008B73"></stop> <stop offset="1" style="stop-color:#E8663D"></stop> </linearGradient> <path class="st2" d="M586.6,157.4l-50.4,50.4c16.7,20,26.7,45.6,26.7,73.6c0,63.4-51.6,115-115,115c-27.9,0-53.6-10.1-73.6-26.7 l-55.2,55.2l-55.2-55.2c-20,16.7-45.6,26.7-73.6,26.7c-63.4,0-115-51.6-115-115c0-27.9,10.1-53.6,26.7-73.6L76.2,182l-24.5-24.5 c-28.6,47.3-45.1,102.7-45.1,162c0,172.6,139.9,312.6,312.6,312.6s312.6-139.9,312.6-312.6C631.7,260.1,615.2,204.8,586.6,157.4z"></path> <linearGradient id="SVGID_4_" gradientUnits="userSpaceOnUse" x1="-30.0724" y1="240.3939" x2="415.1025" y2="544.9872" gradientTransform="matrix(1 0 0 -1 0 638.4661)"> <stop offset="0.1861" style="stop-color:#009BB3"></stop> <stop offset="0.4463" style="stop-color:#008B73"></stop> <stop offset="0.5401" style="stop-color:#008B73"></stop> <stop offset="1" style="stop-color:#E8663D"></stop> </linearGradient> <path class="st3" d="M545.2,103.7C488.4,44.1,408,6.9,319.1,6.9S149.8,44.1,93,103.7c-7.7,8.2-15,16.7-21.9,25.6l248,248.2 l248-248.2C560.4,120.3,553,111.9,545.2,103.7z M319.1,47.8c73.2,0,141.1,28.2,192.2,79.6L319.1,319.6L126.9,127.4 C178,75.9,246,47.8,319.1,47.8z"></path> </g> </g> <g id="Layer_2_1_"> </g> </svg>