<svg version="1.2" baseProfile="tiny" width="44" height="44" id="Capa_1" xmlns="http://www.w3.org/2000/svg" xmlns:xlink="http://www.w3.org/1999/xlink" x="0px" y="0px" viewBox="0 0 44 44" xml:space="preserve">
    <g>
<path fill-rule="evenodd" d="M13,15.8c0.2-5,2-8.6,8.6-9.2h0c0.1,0,0.2,0,0.3,0h16L40.5,3c0.5-0.7,0-1.6-0.8-1.6H4.4
                           C3.6,1.4,3.1,2.4,3.6,3L13,15.8z M27.1,21.3l8.1-11H21.9c-1,0-1.9-0.8-1.9-1.9c-4.8,1.1-5.9,3.5-6.7,7.4h9.8c0,0,0.1,0,0.1,0
                           c0,0,0.1,0,0.1,0C28.4,16,28.5,18.5,27.1,21.3L27.1,21.3z M0,0.6l21.3,42.2c0.4,0.7,1.4,0.7,1.8,0l2.9-5.7l-3.8-5.7L0,0.6z
                           M23.1,19.6h-7.3l5.4,7.4c0.4,0.5,1.2,0.5,1.6,0l2.4-3.3l0.9-1.2v0c0.1-0.1,0.1-0.2,0.2-0.3c0.6-2.4,1-4.8-1.6-5.4c0,0,0,0,0,0
                           l0,0c0.1,0.3,0.2,0.6,0.2,0.9v0C25,18.8,24.2,19.6,23.1,19.6z M25.2,27.3l-2.1,3l3.7,5.4l0.5-1L44.5,0.6L25.2,27.3z"></path>
</g>
</svg>