<svg xmlns="http://www.w3.org/2000/svg" width="29.611" height="28.079" viewBox="0 0 29.611 28.079">
    <defs>
        <style>
            .cls-2{fill:#fff;fill-rule:evenodd}
        </style>
    </defs>
    <g id="_5e99778310343ed2dfe89331_logo_big" transform="translate(-4.312 -10.759)">
        <path id="Path_20" fill="#fff" d="M52.979 25.509c.123-2.546-1.656-4.235-3.662-5.394l-1.3 7.663a1.879 1.879 0 0 1 1.505.454 1.307 1.307 0 0 1 .1 1.765c1.25-.203 3.209-1.413 3.357-4.488z" transform="translate(-19.57 -4.19)"/>
        <path id="Path_21" d="M19.959 12.4L18.4 10.835a24.528 24.528 0 0 1 14.5 3.832 3.1 3.1 0 0 1 0 1.008l.5.252a5.869 5.869 0 0 1 .652 4.487c-.522 2.1-1.421 2.991-1.806 3.176-.8 0-2.167.464-2.609 2.521s-1.288 2.5-1.656 2.47l-8.83.1-5.82-3.428-.853-7.108 1.656-2.218 2.96-2.42 2.107-.857zm10.428 2.936a3.278 3.278 0 0 1-.857.653 5.079 5.079 0 0 1-3.093-1.66 10.57 10.57 0 0 1 5.5 1.36 10.11 10.11 0 0 0-1.55-.355z" class="cls-2" transform="translate(-3.659)"/>
        <path id="Path_22" d="M25.9 27.408a12.259 12.259 0 0 1-5.388 1.208c-5.569 0-10.084-3.5-10.084-7.814 0-3.188 2.464-5.93 6-7.146A12.665 12.665 0 0 0 4.312 26.1c0 7.685 6.851 14.036 15.3 14.036a16.486 16.486 0 0 0 14.31-8.554c-3.778.849-8.252-.767-8.022-4.174z" class="cls-2" transform="translate(0 -1.298)"/>
    </g>
</svg>
