<svg xmlns="http://www.w3.org/2000/svg" id="Component_18_2" width="60" height="60" viewBox="0 0 60 60">
    <defs>
        <clipPath id="clip-path">
            <path id="Rectangle_296" fill="#fff" stroke="#707070" d="M0 0H54V54H0z" transform="translate(865 834)"/>
        </clipPath>
        <style>
            .cls-5{fill:#fff}
        </style>
    </defs>
    <g id="Group_1204" transform="translate(-1023 -3849)">
        <g id="Group_1200" transform="translate(176 2293)">
            <path id="Path_266" fill="#1aaf71" d="M7551.52 856.96l-5.4 6.167v2.159l17.731 21.123 3.083-3.084 15.881-18.811-6.013-7.555z" transform="translate(-6680 725)"/>
            <g id="Mask_Group_43" clip-path="url(#clip-path)" transform="translate(-15 725)">
                <g id="hosting" transform="translate(865 834)">
                    <g id="Group_553">
                        <g id="Group_552">
                            <path id="Rectangle_269" d="M0 0H1.8V1.8H0z" class="cls-5" transform="translate(3.6 7.2)"/>
                        </g>
                    </g>
                    <g id="Group_555">
                        <g id="Group_554">
                            <path id="Rectangle_270" d="M0 0H1.8V1.8H0z" class="cls-5" transform="translate(7.2 7.2)"/>
                        </g>
                    </g>
                    <g id="Group_557">
                        <g id="Group_556">
                            <path id="Rectangle_271" d="M0 0H1.8V1.8H0z" class="cls-5" transform="translate(3.6 3.6)"/>
                        </g>
                    </g>
                    <g id="Group_559">
                        <g id="Group_558">
                            <path id="Rectangle_272" d="M0 0H1.8V1.8H0z" class="cls-5" transform="translate(7.2 3.6)"/>
                        </g>
                    </g>
                    <g id="Group_561">
                        <g id="Group_560">
                            <path id="Rectangle_273" d="M0 0H1.8V1.8H0z" class="cls-5" transform="translate(10.8 7.2)"/>
                        </g>
                    </g>
                    <g id="Group_563">
                        <g id="Group_562">
                            <path id="Rectangle_274" d="M0 0H1.8V1.8H0z" class="cls-5" transform="translate(10.8 3.6)"/>
                        </g>
                    </g>
                    <g id="Group_565">
                        <g id="Group_564">
                            <path id="Rectangle_275" d="M0 0H1.8V1.8H0z" class="cls-5" transform="translate(14.4 7.2)"/>
                        </g>
                    </g>
                    <g id="Group_567">
                        <g id="Group_566">
                            <path id="Rectangle_276" d="M0 0H1.8V1.8H0z" class="cls-5" transform="translate(14.4 3.6)"/>
                        </g>
                    </g>
                    <g id="Group_569">
                        <g id="Group_568">
                            <path id="Rectangle_277" d="M0 0H1.8V1.8H0z" class="cls-5" transform="translate(18 7.2)"/>
                        </g>
                    </g>
                    <g id="Group_571">
                        <g id="Group_570">
                            <path id="Rectangle_278" d="M0 0H1.8V1.8H0z" class="cls-5" transform="translate(18 3.6)"/>
                        </g>
                    </g>
                    <g id="Group_573">
                        <g id="Group_572">
                            <path id="Path_267" d="M33.3 3.6h-8.1a.9.9 0 0 0-.9.9v3.6a.9.9 0 0 0 .9.9h8.1a.9.9 0 0 0 .9-.9V4.5a.9.9 0 0 0-.9-.9zm-.9 3.6h-6.3V5.4h6.3z" class="cls-5"/>
                        </g>
                    </g>
                    <g id="Group_575">
                        <g id="Group_574">
                            <path id="Rectangle_279" d="M0 0H1.8V1.8H0z" class="cls-5" transform="translate(3.6 18)"/>
                        </g>
                    </g>
                    <g id="Group_577">
                        <g id="Group_576">
                            <path id="Rectangle_280" d="M0 0H1.8V1.8H0z" class="cls-5" transform="translate(7.2 18)"/>
                        </g>
                    </g>
                    <g id="Group_579">
                        <g id="Group_578">
                            <path id="Rectangle_281" d="M0 0H1.8V1.8H0z" class="cls-5" transform="translate(3.6 14.4)"/>
                        </g>
                    </g>
                    <g id="Group_581">
                        <g id="Group_580">
                            <path id="Rectangle_282" d="M0 0H1.8V1.8H0z" class="cls-5" transform="translate(7.2 14.4)"/>
                        </g>
                    </g>
                    <g id="Group_583">
                        <g id="Group_582">
                            <path id="Rectangle_283" d="M0 0H1.8V1.8H0z" class="cls-5" transform="translate(10.8 18)"/>
                        </g>
                    </g>
                    <g id="Group_585">
                        <g id="Group_584">
                            <path id="Rectangle_284" d="M0 0H1.8V1.8H0z" class="cls-5" transform="translate(10.8 14.4)"/>
                        </g>
                    </g>
                    <g id="Group_587">
                        <g id="Group_586">
                            <path id="Rectangle_285" d="M0 0H1.8V1.8H0z" class="cls-5" transform="translate(14.4 18)"/>
                        </g>
                    </g>
                    <g id="Group_589">
                        <g id="Group_588">
                            <path id="Rectangle_286" d="M0 0H1.8V1.8H0z" class="cls-5" transform="translate(14.4 14.4)"/>
                        </g>
                    </g>
                    <g id="Group_591">
                        <g id="Group_590">
                            <path id="Rectangle_287" d="M0 0H1.8V1.8H0z" class="cls-5" transform="translate(18 18)"/>
                        </g>
                    </g>
                    <g id="Group_593">
                        <g id="Group_592">
                            <path id="Rectangle_288" d="M0 0H1.8V1.8H0z" class="cls-5" transform="translate(18 14.4)"/>
                        </g>
                    </g>
                    <g id="Group_595">
                        <g id="Group_594">
                            <path id="Path_268" d="M33.3 14.4h-8.1a.9.9 0 0 0-.9.9v3.6a.9.9 0 0 0 .9.9h8.1a.9.9 0 0 0 .9-.9v-3.6a.9.9 0 0 0-.9-.9zm-.9 3.6h-6.3v-1.8h6.3z" class="cls-5"/>
                        </g>
                    </g>
                    <g id="Group_597">
                        <g id="Group_596">
                            <path id="Path_269" d="M53.778 29.107l-6.3-7.2a.909.909 0 0 0-.678-.307h-9.166a2.67 2.67 0 0 0 .166-.9v-7.2a2.683 2.683 0 0 0-.7-1.8 2.678 2.678 0 0 0 .7-1.8V2.7A2.7 2.7 0 0 0 35.1 0H2.7A2.7 2.7 0 0 0 0 2.7v7.2a2.683 2.683 0 0 0 .7 1.8 2.683 2.683 0 0 0-.7 1.8v7.2a2.683 2.683 0 0 0 .7 1.8 2.683 2.683 0 0 0-.7 1.8v7.2a2.7 2.7 0 0 0 2.7 2.7h15.077L33.5 53.665c.014.017.035.023.05.04a.884.884 0 0 0 .214.169c.029.016.056.033.086.047a.809.809 0 0 0 .7 0 .8.8 0 0 0 .086-.047.889.889 0 0 0 .215-.169c.014-.016.036-.023.05-.04l18.9-23.4a.9.9 0 0 0-.023-1.158zm-2.662-.307h-8.632l4.316-4.933zm-6.3-5.4L40.5 28.333 36.183 23.4h8.633zm-21.233 0h8.633L27.9 28.333zm2.333 5.4h-8.633l4.317-4.933zm8.284-4.933l4.316 4.933h-8.633zM1.8 2.7a.9.9 0 0 1 .9-.9h32.4a.9.9 0 0 1 .9.9v7.2a.9.9 0 0 1-.9.9H2.7a.9.9 0 0 1-.9-.9zm0 10.8a.9.9 0 0 1 .9-.9h32.4a.9.9 0 0 1 .9.9v7.2a.9.9 0 0 1-.9.9H2.7a.9.9 0 0 1-.9-.9zm.9 18.9a.9.9 0 0 1-.9-.9v-7.2a.9.9 0 0 1 .9-.9h16.916l-4.725 5.4H14.4v1.8h.47l1.453 1.8zm14.484-1.8h10.025l5.013 18.62zM34.2 49.637L29.074 30.6h10.251zm1.977-.418L41.19 30.6h10.026z" class="cls-5"/>
                        </g>
                    </g>
                    <g id="Group_599">
                        <g id="Group_598">
                            <path id="Rectangle_289" d="M0 0H1.8V1.8H0z" class="cls-5" transform="translate(3.6 28.8)"/>
                        </g>
                    </g>
                    <g id="Group_601">
                        <g id="Group_600">
                            <path id="Rectangle_290" d="M0 0H1.8V1.8H0z" class="cls-5" transform="translate(7.2 28.8)"/>
                        </g>
                    </g>
                    <g id="Group_603">
                        <g id="Group_602">
                            <path id="Rectangle_291" d="M0 0H1.8V1.8H0z" class="cls-5" transform="translate(3.6 25.2)"/>
                        </g>
                    </g>
                    <g id="Group_605">
                        <g id="Group_604">
                            <path id="Rectangle_292" d="M0 0H1.8V1.8H0z" class="cls-5" transform="translate(7.2 25.2)"/>
                        </g>
                    </g>
                    <g id="Group_607">
                        <g id="Group_606">
                            <path id="Rectangle_293" d="M0 0H1.8V1.8H0z" class="cls-5" transform="translate(10.8 28.8)"/>
                        </g>
                    </g>
                    <g id="Group_609">
                        <g id="Group_608">
                            <path id="Rectangle_294" d="M0 0H1.8V1.8H0z" class="cls-5" transform="translate(10.8 25.2)"/>
                        </g>
                    </g>
                    <g id="Group_611">
                        <g id="Group_610">
                            <path id="Rectangle_295" d="M0 0H1.8V1.8H0z" class="cls-5" transform="translate(14.4 25.2)"/>
                        </g>
                    </g>
                    <g id="Group_613">
                        <g id="Group_612">
                            <path id="Path_270" d="M50.4 12.6A3.6 3.6 0 0 1 46.8 9 .9.9 0 0 0 45 9a3.6 3.6 0 0 1-3.6 3.6.9.9 0 1 0 0 1.8A3.6 3.6 0 0 1 45 18a.9.9 0 1 0 1.8 0 3.6 3.6 0 0 1 3.6-3.6.9.9 0 1 0 0-1.8zm-4.5 2.418a5.456 5.456 0 0 0-1.519-1.518 5.456 5.456 0 0 0 1.519-1.518 5.456 5.456 0 0 0 1.518 1.518 5.444 5.444 0 0 0-1.518 1.518z" class="cls-5"/>
                        </g>
                    </g>
                    <g id="Group_615">
                        <g id="Group_614">
                            <path id="Path_271" d="M19.8 43.2a3.6 3.6 0 0 1-3.6-3.6.9.9 0 0 0-1.8 0 3.6 3.6 0 0 1-3.6 3.6.9.9 0 0 0 0 1.8 3.6 3.6 0 0 1 3.6 3.6.9.9 0 0 0 1.8 0 3.6 3.6 0 0 1 3.6-3.6.9.9 0 0 0 0-1.8zm-4.5 2.418a5.456 5.456 0 0 0-1.518-1.518 5.456 5.456 0 0 0 1.518-1.518 5.456 5.456 0 0 0 1.518 1.518 5.444 5.444 0 0 0-1.518 1.518z" class="cls-5"/>
                        </g>
                    </g>
                    <g id="Group_617">
                        <g id="Group_616">
                            <path id="Path_272" d="M53.1 47.7a3.6 3.6 0 0 1-3.6-3.6.9.9 0 1 0-1.8 0 3.6 3.6 0 0 1-3.6 3.6.9.9 0 1 0 0 1.8 3.6 3.6 0 0 1 3.6 3.6.9.9 0 0 0 1.8 0 3.6 3.6 0 0 1 3.6-3.6.9.9 0 0 0 0-1.8zm-4.5 2.418a5.456 5.456 0 0 0-1.519-1.518 5.456 5.456 0 0 0 1.519-1.519 5.456 5.456 0 0 0 1.518 1.519 5.444 5.444 0 0 0-1.518 1.518z" class="cls-5"/>
                        </g>
                    </g>
                </g>
            </g>
        </g>
    </g>
</svg>
