<svg xmlns="http://www.w3.org/2000/svg" id="Component_17_2" width="60" height="60" viewBox="0 0 60 60">
    <defs>
        <clipPath id="clip-path">
            <path id="Rectangle_494" fill="#fff" stroke="#707070" d="M0 0H54V54H0z" transform="translate(865 606)"/>
        </clipPath>
        <style>
            .cls-5{fill:#fff}
        </style>
    </defs>
    <g id="Group_1203" transform="translate(-316 -3844)">
        <g id="Group_1199" transform="translate(176 2293)">
            <path id="Path_396" fill="#1aaf71" d="M8.5.385A7.725 7.725 0 0 1 16.451 8.5c0 4.694-3.256 8.205-7.951 8.205S-.492 12.825-.492 8.13 3.806.385 8.5.385z" transform="translate(162 1559)"/>
            <g id="Mask_Group_55" clip-path="url(#clip-path)" transform="translate(-722 948)">
                <g id="monitor" transform="translate(865 606)">
                    <g id="Group_1031">
                        <g id="Group_1030">
                            <path id="Path_397" d="M49.5 0h-45A4.505 4.505 0 0 0 0 4.5v33.3a4.505 4.505 0 0 0 4.5 4.5h14.815l-2.8 6.3H7.2a.9.9 0 0 0-.9.9 4.505 4.505 0 0 0 4.5 4.5h32.4a4.505 4.505 0 0 0 4.5-4.5.9.9 0 0 0-.9-.9h-9.315l-2.8-6.3H49.5a4.505 4.505 0 0 0 4.5-4.5V4.5A4.505 4.505 0 0 0 49.5 0zm-3.754 50.4a2.705 2.705 0 0 1-2.546 1.8H10.8a2.705 2.705 0 0 1-2.546-1.8h37.492zm-10.231-1.8h-17.03l2.8-6.3h11.43zM52.2 37.8a2.7 2.7 0 0 1-2.7 2.7h-45a2.7 2.7 0 0 1-2.7-2.7V36h50.4zm0-3.6H1.8V4.5a2.7 2.7 0 0 1 2.7-2.7h45a2.7 2.7 0 0 1 2.7 2.7z" class="cls-5"/>
                        </g>
                    </g>
                    <g id="Group_1033">
                        <g id="Group_1032">
                            <path id="Path_398" d="M36 10.8h-1.37a8.1 8.1 0 0 0-.325-.786l.968-.969a.9.9 0 0 0 0-1.273l-2.545-2.546a.9.9 0 0 0-1.273 0l-.969.968q-.386-.18-.786-.324V4.5a.9.9 0 0 0-.9-.9h-3.6a.9.9 0 0 0-.9.9v1.37a8.1 8.1 0 0 0-.786.325l-.969-.968a.9.9 0 0 0-1.273 0l-2.546 2.546a.9.9 0 0 0 0 1.273l.968.969a8.1 8.1 0 0 0-.325.786H18a.9.9 0 0 0-.9.9v3.6a.9.9 0 0 0 .9.9h1.37a8.1 8.1 0 0 0 .325.786l-.968.969a.9.9 0 0 0 0 1.273l2.546 2.546a.9.9 0 0 0 1.273 0l.969-.968a8.1 8.1 0 0 0 .786.325V22.5a.9.9 0 0 0 .9.9h3.6a.9.9 0 0 0 .9-.9v-1.37a8.1 8.1 0 0 0 .786-.325l.969.968a.9.9 0 0 0 1.273 0l2.546-2.546a.9.9 0 0 0 0-1.273l-.968-.969a8.1 8.1 0 0 0 .325-.786H36a.9.9 0 0 0 .9-.9V11.7a.9.9 0 0 0-.9-.9zm-.9 3.6h-1.136a.9.9 0 0 0-.871.675 6.234 6.234 0 0 1-.67 1.619.9.9 0 0 0 .139 1.094l.8.8-1.272 1.276-.8-.8a.9.9 0 0 0-1.094-.139 6.26 6.26 0 0 1-1.619.671.9.9 0 0 0-.675.871V21.6H26.1v-1.136a.9.9 0 0 0-.675-.871 6.234 6.234 0 0 1-1.619-.671.9.9 0 0 0-1.094.139l-.8.8-1.276-1.271.8-.8a.9.9 0 0 0 .139-1.094 6.26 6.26 0 0 1-.67-1.619.9.9 0 0 0-.871-.675H18.9V12.6h1.136a.9.9 0 0 0 .871-.675 6.234 6.234 0 0 1 .67-1.619.9.9 0 0 0-.139-1.094l-.8-.8 1.272-1.276.8.8a.9.9 0 0 0 1.094.139 6.26 6.26 0 0 1 1.619-.67.9.9 0 0 0 .675-.871V5.4h1.8v1.136a.9.9 0 0 0 .675.871 6.234 6.234 0 0 1 1.619.671.9.9 0 0 0 1.094-.139l.8-.8 1.278 1.271-.8.8a.9.9 0 0 0-.139 1.094 6.26 6.26 0 0 1 .67 1.619.9.9 0 0 0 .871.675H35.1z" class="cls-5"/>
                        </g>
                    </g>
                    <g id="Group_1035">
                        <g id="Group_1034">
                            <path id="Path_399" d="M27 9.9a3.6 3.6 0 1 0 3.6 3.6A3.6 3.6 0 0 0 27 9.9zm0 5.4a1.8 1.8 0 1 1 1.8-1.8 1.8 1.8 0 0 1-1.8 1.8z" class="cls-5"/>
                        </g>
                    </g>
                    <g id="Group_1037">
                        <g id="Group_1036">
                            <path id="Rectangle_489" d="M0 0H11.7V1.8H0z" class="cls-5" transform="translate(3.6 12.6)"/>
                        </g>
                    </g>
                    <g id="Group_1039">
                        <g id="Group_1038">
                            <path id="Path_400" d="M13.5 5.4a.9.9 0 0 0-.636.264L9.527 9H3.6v1.8h6.3a.9.9 0 0 0 .636-.264L13.873 7.2H17.1V5.4z" class="cls-5"/>
                        </g>
                    </g>
                    <g id="Group_1041">
                        <g id="Group_1040">
                            <path id="Path_401" d="M13.873 19.8l-3.336-3.336A.9.9 0 0 0 9.9 16.2H3.6V18h5.927l3.336 3.336a.9.9 0 0 0 .636.264h3.6v-1.8z" class="cls-5"/>
                        </g>
                    </g>
                    <g id="Group_1043">
                        <g id="Group_1042">
                            <path id="Rectangle_490" d="M0 0H11.7V1.8H0z" class="cls-5" transform="translate(38.7 12.6)"/>
                        </g>
                    </g>
                    <g id="Group_1045">
                        <g id="Group_1044">
                            <path id="Path_402" d="M44.473 9l-3.337-3.336A.9.9 0 0 0 40.5 5.4h-3.6v1.8h3.227l3.336 3.336a.9.9 0 0 0 .636.264h6.3V9z" class="cls-5"/>
                        </g>
                    </g>
                    <g id="Group_1047">
                        <g id="Group_1046">
                            <path id="Path_403" d="M44.1 16.2a.9.9 0 0 0-.636.264L40.127 19.8H36.9v1.8h3.6a.9.9 0 0 0 .636-.264L44.473 18H50.4v-1.8z" class="cls-5"/>
                        </g>
                    </g>
                    <g id="Group_1049">
                        <g id="Group_1048">
                            <path id="Path_404" d="M19.086 26.736l-1.273-1.273-2.7 2.7a.9.9 0 0 0 0 1.273l2.7 2.7 1.273-1.273-2.063-2.063z" class="cls-5"/>
                        </g>
                    </g>
                    <g id="Group_1051">
                        <g id="Group_1050">
                            <path id="Path_405" d="M38.886 28.164l-2.7-2.7-1.273 1.273 2.064 2.063-2.064 2.064 1.273 1.273 2.7-2.7a.9.9 0 0 0 0-1.273z" class="cls-5"/>
                        </g>
                    </g>
                    <g id="Group_1053">
                        <g id="Group_1052">
                            <path id="Rectangle_491" d="M0 0H1.8V1.8H0z" class="cls-5" transform="translate(27 29.7)"/>
                        </g>
                    </g>
                    <g id="Group_1055">
                        <g id="Group_1054">
                            <path id="Rectangle_492" d="M0 0H1.8V1.8H0z" class="cls-5" transform="translate(30.6 29.7)"/>
                        </g>
                    </g>
                    <g id="Group_1057">
                        <g id="Group_1056">
                            <path id="Rectangle_493" d="M0 0H6V1.8H0z" class="cls-5" transform="rotate(-64.02 35.75 -1.861)"/>
                        </g>
                    </g>
                </g>
            </g>
        </g>
    </g>
</svg>
