<svg xmlns="http://www.w3.org/2000/svg" width="306" height="305" viewBox="0 0 306 305">
    <defs>
        <style>
            .cls-6{fill:#001047}.cls-7,.cls-8{stroke:none}.cls-8{fill:#1aaf71}
        </style>
    </defs>
    <g id="Group_1070" transform="rotate(90 153 153)">
        <g id="Subtraction_9" fill="none" opacity="0.6">
            <path d="M147.747 151.08H0A154.667 154.667 0 0 1 147.747 0v151.08z" class="cls-7" transform="rotate(180 73.874 75.54)"/>
            <path d="M146.747 150.076V1.048c-38.616 1.95-74.768 18.24-101.903 45.944-27.181 27.746-42.72 64.32-43.819 103.084h145.722m1 1.004v-.004H0c.858-39.4 16.53-76.611 44.13-104.784C71.686 18.158 108.485 1.717 147.747 0V151.08z" class="cls-8" transform="rotate(180 73.874 75.54)"/>
        </g>
        <g id="Subtraction_10" fill="none" opacity="0.5">
            <path d="M182.125 185.48H0A189.033 189.033 0 0 1 182.125 0v185.48z" class="cls-7" transform="rotate(180 91.064 92.74)"/>
            <path d="M181.125 184.475V1.04c-47.8 1.968-92.582 21.846-126.207 56.044C21.248 91.326 2.13 136.531 1.02 184.475h180.104m1 1.005v-.005H0c.866-48.58 20.117-94.425 54.204-129.093C88.252 21.755 133.682 1.732 182.124 0v185.48z" class="cls-8" transform="rotate(180 91.064 92.74)"/>
        </g>
        <g id="Subtraction_11" fill="none" opacity="0.4">
            <path d="M216.5 219.866H0A223.225 223.225 0 0 1 216.5 0v219.866z" class="cls-7" transform="rotate(180 108.251 109.933)"/>
            <path d="M215.5 218.861V1.033c-28.643.998-56.36 7.372-82.398 18.95C107.59 31.329 84.673 47.206 64.99 67.173c-19.7 19.979-35.253 43.133-46.226 68.82-11.217 26.251-17.186 54.128-17.747 82.87H215.5m1 1.004v-.005H0c.44-29.234 6.445-57.582 17.845-84.262 11.022-25.802 26.644-49.06 46.433-69.13 19.773-20.057 42.792-36.004 68.418-47.4C159.167 7.3 187.362.884 216.5 0V219.866z" class="cls-8" transform="rotate(180 108.251 109.933)"/>
        </g>
        <g id="Subtraction_12" fill="none" opacity="0.3">
            <path d="M250.869 254.25H0A257.56 257.56 0 0 1 250.869 0v254.25z" class="cls-7" transform="rotate(180 125.435 127.125)"/>
            <path d="M249.87 253.245V1.03c-33.283 1.003-65.502 8.29-95.776 21.664-29.6 13.075-56.19 31.431-79.034 54.56-22.853 23.135-40.884 49.966-53.592 79.745-13.01 30.498-19.89 62.874-20.453 96.247H249.87m1 1.005v-.005H0c.442-33.871 7.36-66.72 20.549-97.64 12.756-29.893 30.857-56.83 53.8-80.056 22.93-23.216 49.626-41.645 79.341-54.771C184.396 8.213 217.093.886 250.87 0v254.25z" class="cls-8" transform="rotate(180 125.435 127.125)"/>
        </g>
        <g id="Subtraction_13" fill="none" opacity="0.2">
            <path d="M288.678 292.068H0a294.112 294.112 0 0 1 50.232-161.491A296.535 296.535 0 0 1 176.78 24.757 293.484 293.484 0 0 1 288.678 0v292.068z" class="cls-7" transform="rotate(180 144.34 146.034)"/>
            <path d="M287.678 291.064V1.024c-38.39 1.009-75.558 9.3-110.495 24.648-16.972 7.456-33.336 16.587-48.639 27.139-15.17 10.459-29.439 22.412-42.411 35.526-12.98 13.117-24.78 27.517-35.072 42.799-10.394 15.433-19.35 31.906-26.62 48.963C9.457 215.255 1.577 252.582 1.012 291.064h286.665m1 1.004v-.004H0c.442-38.975 8.357-76.777 23.52-112.357 7.297-17.12 16.285-33.65 26.712-49.13 10.327-15.333 22.166-29.781 35.19-42.943 13.018-13.16 27.335-25.153 42.555-35.647 15.35-10.584 31.77-19.747 48.803-27.23C212.148 9.219 249.795.89 288.678 0V292.068z" class="cls-8" transform="rotate(180 144.34 146.034)"/>
        </g>
        <path id="Rectangle_522" d="M0 0H305V2H0z" class="cls-6"/>
        <path id="Rectangle_523" d="M0 0H304V1H0z" class="cls-6" transform="rotate(-90 153 153)"/>
    </g>
</svg>
