<svg xmlns="http://www.w3.org/2000/svg" id="Group_1060" width="229" height="232.001" viewBox="0 0 229 232.001">
    <defs>
        <style>
            .cls-6{fill:#1aaf71}.cls-7,.cls-8{stroke:none}.cls-8{fill:#fff}
        </style>
    </defs>
    <g id="Subtraction_9" fill="none" opacity="0.6">
        <path d="M110.75 113.249H0A115.937 115.937 0 0 1 110.75 0v113.249z" class="cls-7" transform="rotate(180 55.376 56.624)"/>
        <path d="M109.75 112.246V1.049C80.967 2.57 54.027 14.742 33.794 35.4 13.523 56.092 1.91 83.347 1.027 112.246H109.75m1 1.003v-.003H0C.643 83.712 12.39 55.818 33.08 34.7 53.735 13.611 81.32 1.287 110.75 0v113.249z" class="cls-8" transform="rotate(180 55.376 56.624)"/>
    </g>
    <g id="Subtraction_10" fill="none" opacity="0.5">
        <path d="M136.519 139.034H0A141.7 141.7 0 0 1 136.519 0v139.034z" class="cls-7" transform="rotate(180 68.26 69.517)"/>
        <path d="M135.52 138.031V1.041C99.851 2.574 66.442 17.438 41.343 42.964c-25.133 25.56-39.43 59.287-40.322 95.066h134.497m1 1.003v-.003H0c.65-36.415 15.08-70.78 40.631-96.767C66.153 16.307 100.207 1.298 136.52 0v139.034z" class="cls-8" transform="rotate(180 68.26 69.517)"/>
    </g>
    <g id="Subtraction_11" fill="none" opacity="0.4">
        <path d="M162.287 164.81H0A167.328 167.328 0 0 1 162.287 0v164.81z" class="cls-7" transform="rotate(180 81.144 82.405)"/>
        <path d="M161.287 163.807V1.034c-21.347.776-42.003 5.543-61.413 14.174-19.095 8.492-36.247 20.374-50.98 35.32C34.15 65.48 22.51 82.811 14.296 102.036c-8.363 19.57-12.828 40.348-13.278 61.77h160.27m1 1.003v-.003H0c.33-21.914 4.83-43.164 13.376-63.163 8.262-19.34 19.973-36.775 34.806-51.819C63.004 34.79 80.26 22.836 99.468 14.295 119.311 5.47 140.445.662 162.288 0V164.81z" class="cls-8" transform="rotate(180 81.144 82.405)"/>
    </g>
    <g id="Subtraction_12" fill="none" opacity="0.3">
        <path d="M188.05 190.584H0A193.065 193.065 0 0 1 188.05 0v190.584z" class="cls-7" transform="rotate(180 94.026 95.292)"/>
        <path d="M187.05 189.58V1.03c-24.824.78-48.855 6.232-71.44 16.21-22.16 9.788-42.066 23.53-59.167 40.844-17.109 17.32-30.607 37.406-40.12 59.7-9.707 22.753-14.855 46.903-15.307 71.797H187.05m1 1.003v-.003H0c.331-25.39 5.517-50.014 15.403-73.19 9.562-22.409 23.13-42.6 40.328-60.01 17.19-17.403 37.2-31.217 59.474-41.056C138.222 6.157 162.731.665 188.05 0v190.584z" class="cls-8" transform="rotate(180 94.026 95.292)"/>
    </g>
    <g id="Subtraction_13" fill="none" opacity="0.2">
        <path d="M216.391 218.932H0A220.465 220.465 0 0 1 37.653 97.88a222.281 222.281 0 0 1 94.86-79.322A219.994 219.994 0 0 1 216.391 0v218.932z" class="cls-7" transform="rotate(180 108.197 109.466)"/>
        <path d="M215.391 217.929V1.025c-28.651.786-56.396 6.99-82.475 18.448-12.708 5.582-24.96 12.419-36.418 20.32-11.358 7.83-22.042 16.78-31.755 26.6-9.719 9.821-18.554 20.603-26.26 32.045-7.783 11.555-14.489 23.89-19.932 36.662-11.185 26.244-17.083 54.106-17.537 82.829H215.39m1 1.003v-.003H0c.331-29.215 6.265-57.551 17.63-84.222 5.47-12.832 12.208-25.223 20.023-36.827 7.741-11.494 16.616-22.324 26.379-32.19 9.758-9.865 20.49-18.855 31.899-26.72 11.506-7.935 23.814-14.803 36.582-20.412C159.025 6.91 187.245.667 216.391 0v218.932z" class="cls-8" transform="rotate(180 108.197 109.466)"/>
    </g>
    <path id="Rectangle_522" d="M0 0H229V1H0z" class="cls-6" transform="translate(0 .002)"/>
    <path id="Rectangle_523" d="M0 0H229V1H0z" class="cls-6" transform="rotate(-90 116 116)"/>
</svg>
