<svg xmlns="http://www.w3.org/2000/svg" width="73" height="34.963" viewBox="0 0 73 34.963">
    <defs>
        <style>
            .cls-1{fill:#fff}
        </style>
    </defs>
    <g id="download">
        <path id="Path_1" d="M11.852 26.932v-2.186a5.887 5.887 0 0 1-5.177 2.39 6.345 6.345 0 0 1-4.445-1.594C.37 23.707 0 20.672 0 17.82s.37-5.89 2.222-7.742a6.345 6.345 0 0 1 4.445-1.593 5.874 5.874 0 0 1 5.149 2.334V.56h2.664v26.372zM7.26 10.855c-3.963 0-4.592 3.421-4.592 6.965s.632 6.962 4.592 6.962 4.556-3.405 4.556-6.961-.593-6.966-4.556-6.966z" class="cls-1" transform="translate(0 -.337)"/>
        <path id="Path_2" d="M67.766 24.074a9.666 9.666 0 0 1-13.485 0C51.8 21.593 51.8 19 51.8 13.409s0-8.188 2.469-10.669a9.666 9.666 0 0 1 13.485 0c2.481 2.481 2.481 5.074 2.481 10.669s.012 8.184-2.469 10.665zM65.58 4.409a6.432 6.432 0 0 0-9.112 0c-1.669 1.7-1.852 3.481-1.852 9s.183 7.3 1.852 9a6.444 6.444 0 0 0 9.112 0c1.665-1.7 1.852-3.485 1.852-9s-.188-7.296-1.852-9z" class="cls-1" transform="translate(-31.17)"/>
        <path id="Path_3" d="M123.719 24.164a3.813 3.813 0 0 0-3.15-1.334c-2.664 0-4.381 2.111-4.381 4.891v11.186h-2.668V20.675h2.668v2.23a6.122 6.122 0 0 1 5.11-2.445 5.615 5.615 0 0 1 4.381 1.7z" class="cls-1" transform="translate(-68.31 -12.312)"/>
        <path id="Path_4" d="M153.938 47.274a8.04 8.04 0 0 1-6.185-2.441l1.74-1.7a5.582 5.582 0 0 0 4.381 1.816c3.521 0 5-2.485 5-5.576V36.5a5.9 5.9 0 0 1-5.114 2.39 6.249 6.249 0 0 1-4.4-1.629c-1.828-1.848-2.238-4.636-2.238-7.611s.4-5.779 2.226-7.595a6.331 6.331 0 0 1 4.445-1.593 5.754 5.754 0 0 1 5.11 2.37v-2.157h2.628v18.786c-.002 4.52-2.818 7.813-7.593 7.813zm.4-24.445c-3.963 0-4.556 3.409-4.556 6.818s.593 6.814 4.556 6.814 4.52-3.409 4.52-6.814-.55-6.818-4.512-6.818z" class="cls-1" transform="translate(-88.529 -12.312)"/>
        <path id="Path_5" d="M74.679 32.423l-.139-.139-.14-.144a1.533 1.533 0 0 1-2.3 0l-.139.143-.139.139a1.442 1.442 0 0 1 0 2.238l.279.287a1.533 1.533 0 0 1 2.3 0l.279-.287a1.446 1.446 0 0 1 0-2.238z" class="cls-1" transform="translate(-43.217 -19.34)"/>
        <path id="Path_6" d="M82.759 27.881v-.526a3.611 3.611 0 0 0-.044-.438 1.637 1.637 0 0 0-.147-.534 1.49 1.49 0 0 0-.307-.442 1.374 1.374 0 0 0-.462-.291 1.45 1.45 0 0 0-.585-.112 1.47 1.47 0 0 0-.589.112 1.374 1.374 0 0 0-.454.3 1.49 1.49 0 0 0-.307.442 1.637 1.637 0 0 0-.139.522c-.02.135-.032.279-.04.426s0 .3 0 .454v.072z" class="cls-1" transform="translate(-47.948 -15.368)"/>
        <circle id="Ellipse_1" cx="1.258" cy="1.258" r="1.258" class="cls-1" transform="translate(32 7.642)"/>
        <path id="Path_7" d="M66.79 27.868v-.526a3.614 3.614 0 0 0-.036-.426 1.74 1.74 0 0 0-.143-.534 1.593 1.593 0 0 0-.311-.442 1.4 1.4 0 0 0-.45-.3 1.5 1.5 0 0 0-1.633.3 1.569 1.569 0 0 0-.307.442 1.74 1.74 0 0 0-.159.522c0 .135-.028.279-.04.426s0 .3 0 .454v.072z" class="cls-1" transform="translate(-38.335 -15.355)"/>
        <circle id="Ellipse_2" cx="1.258" cy="1.258" r="1.258" class="cls-1" transform="translate(25.64 7.642)"/>
        <path id="Path_8" d="M66.79 45.8v-.526a3.407 3.407 0 0 0-.036-.422 1.736 1.736 0 0 0-.143-.538 1.593 1.593 0 0 0-.311-.442 1.465 1.465 0 0 0-.45-.3 1.5 1.5 0 0 0-1.633.3 1.569 1.569 0 0 0-.307.442 1.736 1.736 0 0 0-.159.55c0 .131-.028.275-.04.422s0 .3 0 .458v.068z" class="cls-1" transform="translate(-38.335 -26.144)"/>
        <circle id="Ellipse_3" cx="1.258" cy="1.258" r="1.258" class="cls-1" transform="translate(25.64 14.783)"/>
        <path id="Path_9" d="M82.469 45.836v-.526a3.478 3.478 0 0 0-.048-.41 1.633 1.633 0 0 0-.147-.538 1.49 1.49 0 0 0-.307-.442 1.438 1.438 0 0 0-.454-.3 1.517 1.517 0 0 0-.585-.108 1.537 1.537 0 0 0-.589.108 1.438 1.438 0 0 0-.454.3 1.489 1.489 0 0 0-.307.442 1.633 1.633 0 0 0-.143.538c0 .131-.032.275-.04.422s0 .3 0 .458v.068z" class="cls-1" transform="translate(-47.773 -26.182)"/>
        <circle id="Ellipse_4" cx="1.258" cy="1.258" r="1.258" class="cls-1" transform="translate(31.884 14.783)"/>
    </g>
</svg>
