<svg xmlns="http://www.w3.org/2000/svg" id="Component_27_3" width="28" height="28" viewBox="0 0 28 28">
    <defs>
        <clipPath id="clip-path">
            <path id="Rectangle_583" fill="#fff" d="M0 0H28V28H0z"/>
        </clipPath>
        <style>
            .cls-3{fill:none;stroke:#fff;stroke-linecap:round;stroke-linejoin:round;stroke-width:2.333px}
        </style>
    </defs>
    <g id="Mask_Group_60" clip-path="url(#clip-path)">
        <g id="settings_1_" transform="translate(1.167 1.167)">
            <circle id="Ellipse_51" cx="3.5" cy="3.5" r="3.5" class="cls-3" transform="translate(9.333 9.333)"/>
            <path id="Path_605" d="M22.633 17.5a1.925 1.925 0 0 0 .385 2.123l.07.07a2.335 2.335 0 1 1-3.3 3.3l-.07-.07a1.941 1.941 0 0 0-3.29 1.377v.2a2.333 2.333 0 0 1-4.667 0v-.105a1.925 1.925 0 0 0-1.26-1.762 1.925 1.925 0 0 0-2.123.385l-.07.07a2.335 2.335 0 1 1-3.3-3.3l.07-.07A1.941 1.941 0 0 0 3.7 16.427h-.2a2.333 2.333 0 1 1 0-4.667h.1a1.925 1.925 0 0 0 1.767-1.26 1.925 1.925 0 0 0-.385-2.123l-.07-.07A2.335 2.335 0 1 1 8.213 5l.07.07a1.925 1.925 0 0 0 2.123.385h.094A1.925 1.925 0 0 0 11.667 3.7v-.2a2.333 2.333 0 1 1 4.667 0v.1a1.941 1.941 0 0 0 3.29 1.377l.07-.07a2.335 2.335 0 1 1 3.3 3.3l-.07.07a1.925 1.925 0 0 0-.385 2.123v.1a1.925 1.925 0 0 0 1.761 1.167h.2a2.333 2.333 0 0 1 0 4.667h-.105a1.925 1.925 0 0 0-1.762 1.166z" class="cls-3" transform="translate(-1.167 -1.167)"/>
        </g>
    </g>
</svg>
