<svg xmlns="http://www.w3.org/2000/svg" id="Component_21_2" width="60" height="60" viewBox="0 0 60 60">
    <defs>
        <clipPath id="clip-path">
            <path id="Rectangle_324" fill="#fff" stroke="#707070" d="M0 0H54V54H0z" transform="translate(846 670)"/>
        </clipPath>
        <style>
            .cls-5{fill:#fff}
        </style>
    </defs>
    <g id="Group_1020" transform="translate(-847 -667)">
        <circle id="Ellipse_25" cx="4.5" cy="4.5" r="4.5" fill="#1aaf71" transform="translate(856 676)"/>
        <g id="Mask_Group_46" clip-path="url(#clip-path)" transform="translate(4)">
            <g id="process_1_" transform="translate(846 670)">
                <g id="Group_699">
                    <g id="Group_698">
                        <path id="Path_309" d="M21.519 9.522a.9.9 0 0 0-.729-.783l-2.29-.423A7.419 7.419 0 0 0 18 7.11l1.323-1.91a.9.9 0 0 0 0-1.071 10.855 10.855 0 0 0-1.8-1.8.9.9 0 0 0-1.071 0L14.49 3.6a7.419 7.419 0 0 0-1.206-.5L12.861.81a.9.9 0 0 0-.783-.729 10.122 10.122 0 0 0-2.556 0 .9.9 0 0 0-.783.729L8.316 3.1a7.419 7.419 0 0 0-1.206.5L5.2 2.277a.9.9 0 0 0-1.071 0 10.851 10.851 0 0 0-1.8 1.8.9.9 0 0 0 0 1.071L3.6 7.11a7.419 7.419 0 0 0-.5 1.206l-2.29.423a.9.9 0 0 0-.729.783 10.122 10.122 0 0 0 0 2.556.9.9 0 0 0 .729.783l2.286.423a7.419 7.419 0 0 0 .5 1.206L2.277 16.4a.9.9 0 0 0 0 1.071 10.855 10.855 0 0 0 1.8 1.8.9.9 0 0 0 1.071 0L7.11 18a7.419 7.419 0 0 0 1.206.5l.423 2.286a.9.9 0 0 0 .783.729 10.122 10.122 0 0 0 2.556 0 .9.9 0 0 0 .783-.729l.423-2.286a7.419 7.419 0 0 0 1.206-.5l1.91 1.323a.9.9 0 0 0 1.071 0 10.855 10.855 0 0 0 1.8-1.8.9.9 0 0 0 0-1.071L18 14.49a7.419 7.419 0 0 0 .5-1.206l2.286-.423a.9.9 0 0 0 .729-.783 10.122 10.122 0 0 0 .004-2.556zm-1.7 1.3v.414l-2.16.4a.9.9 0 0 0-.711.675 6.1 6.1 0 0 1-.747 1.8.9.9 0 0 0 0 .981l1.242 1.8a5.982 5.982 0 0 1-.585.585l-1.8-1.242a.9.9 0 0 0-.981 0 6.1 6.1 0 0 1-1.8.747.9.9 0 0 0-.675.711l-.388 2.107h-.828l-.4-2.16a.9.9 0 0 0-.675-.711 6.1 6.1 0 0 1-1.8-.747.9.9 0 0 0-.981 0l-1.8 1.242a5.982 5.982 0 0 1-.585-.585l1.242-1.8a.9.9 0 0 0 0-.981 6.1 6.1 0 0 1-.747-1.8.9.9 0 0 0-.711-.675L1.8 11.214v-.828l2.169-.4a.9.9 0 0 0 .711-.675 6.1 6.1 0 0 1 .747-1.8.9.9 0 0 0-.027-.959l-1.242-1.8a5.982 5.982 0 0 1 .585-.585L6.552 5.4a.9.9 0 0 0 .981 0 6.1 6.1 0 0 1 1.8-.747.9.9 0 0 0 .675-.711l.378-2.142h.828l.4 2.16a.9.9 0 0 0 .675.711 6.1 6.1 0 0 1 1.8.747.9.9 0 0 0 .981 0l1.8-1.242a5.982 5.982 0 0 1 .585.585L16.2 6.552a.9.9 0 0 0 0 .981 6.1 6.1 0 0 1 .747 1.8.9.9 0 0 0 .711.675l2.16.4z" class="cls-5"/>
                    </g>
                </g>
                <g id="Group_701">
                    <g id="Group_700">
                        <path id="Path_310" d="M53.919 25.722a.9.9 0 0 0-.729-.783l-2.29-.423a7.419 7.419 0 0 0-.5-1.206l1.323-1.91a.9.9 0 0 0 0-1.071 10.855 10.855 0 0 0-1.8-1.8.9.9 0 0 0-1.071 0L46.89 19.8a7.419 7.419 0 0 0-1.206-.5l-.423-2.286a.9.9 0 0 0-.783-.729 10.123 10.123 0 0 0-2.556 0 .9.9 0 0 0-.783.729l-.423 2.286a7.419 7.419 0 0 0-1.206.5l-1.91-1.323a.9.9 0 0 0-1.071 0 10.855 10.855 0 0 0-1.8 1.8.9.9 0 0 0 0 1.071L36 23.31a7.42 7.42 0 0 0-.5 1.206l-2.286.423a.9.9 0 0 0-.729.783 10.122 10.122 0 0 0 0 2.556.9.9 0 0 0 .729.783l2.286.423a7.419 7.419 0 0 0 .5 1.206l-1.323 1.91a.9.9 0 0 0 0 1.071 10.855 10.855 0 0 0 1.8 1.8.9.9 0 0 0 1.071 0L39.51 34.2a7.42 7.42 0 0 0 1.206.5l.423 2.286a.9.9 0 0 0 .783.729 10.122 10.122 0 0 0 2.556 0 .9.9 0 0 0 .783-.729l.423-2.286a7.419 7.419 0 0 0 1.206-.5l1.91 1.323a.9.9 0 0 0 1.071 0 10.856 10.856 0 0 0 1.8-1.8.9.9 0 0 0 0-1.071L50.4 30.69a7.419 7.419 0 0 0 .5-1.206l2.286-.423a.9.9 0 0 0 .729-.783 10.123 10.123 0 0 0 .004-2.556zM52.254 27c0 .135-.054.27-.054.414l-2.16.4a.9.9 0 0 0-.711.675 6.1 6.1 0 0 1-.747 1.8.9.9 0 0 0 0 .981l1.242 1.8a5.982 5.982 0 0 1-.585.585l-1.8-1.242a.9.9 0 0 0-.981 0 6.1 6.1 0 0 1-1.8.747.9.9 0 0 0-.675.711L43.614 36h-.828l-.4-2.16a.9.9 0 0 0-.675-.711 6.1 6.1 0 0 1-1.8-.747.9.9 0 0 0-.981 0l-1.8 1.242a5.982 5.982 0 0 1-.585-.585l1.242-1.8a.9.9 0 0 0 0-.981 6.1 6.1 0 0 1-.747-1.8.9.9 0 0 0-.711-.675l-2.129-.369v-.828l2.16-.4a.9.9 0 0 0 .711-.675 6.1 6.1 0 0 1 .747-1.8.9.9 0 0 0 0-.981l-1.242-1.8a5.982 5.982 0 0 1 .585-.585l1.8 1.242a.9.9 0 0 0 .981 0 6.1 6.1 0 0 1 1.8-.747.9.9 0 0 0 .675-.711l.4-2.16h.828l.4 2.16a.9.9 0 0 0 .675.711 6.1 6.1 0 0 1 1.8.747.9.9 0 0 0 .981 0l1.8-1.242a5.982 5.982 0 0 1 .585.585l-1.242 1.8a.9.9 0 0 0 0 .981 6.1 6.1 0 0 1 .747 1.8.9.9 0 0 0 .711.675l2.16.4c-.008.144-.008.279-.008.414z" class="cls-5"/>
                    </g>
                </g>
                <g id="Group_703">
                    <g id="Group_702">
                        <path id="Path_311" d="M21.519 41.922a.9.9 0 0 0-.729-.783l-2.29-.423a7.419 7.419 0 0 0-.5-1.206l1.323-1.91a.9.9 0 0 0 0-1.071 10.855 10.855 0 0 0-1.8-1.8.9.9 0 0 0-1.071 0L14.49 36a7.42 7.42 0 0 0-1.206-.5l-.423-2.286a.9.9 0 0 0-.783-.729 10.122 10.122 0 0 0-2.556 0 .9.9 0 0 0-.783.729L8.316 35.5a7.419 7.419 0 0 0-1.206.5L5.2 34.677a.9.9 0 0 0-1.071 0 10.851 10.851 0 0 0-1.8 1.8.9.9 0 0 0 0 1.071L3.6 39.51a7.419 7.419 0 0 0-.5 1.206l-2.29.423a.9.9 0 0 0-.729.783 10.122 10.122 0 0 0 0 2.556.9.9 0 0 0 .729.783l2.286.423a7.419 7.419 0 0 0 .5 1.206L2.277 48.8a.9.9 0 0 0 0 1.071 10.855 10.855 0 0 0 1.8 1.8.9.9 0 0 0 1.071 0L7.11 50.4a7.419 7.419 0 0 0 1.206.5l.423 2.286a.9.9 0 0 0 .783.729 10.123 10.123 0 0 0 2.556 0 .9.9 0 0 0 .783-.729l.423-2.286a7.419 7.419 0 0 0 1.206-.5l1.91 1.323a.9.9 0 0 0 1.071 0 10.855 10.855 0 0 0 1.8-1.8.9.9 0 0 0 0-1.071L18 46.89a7.419 7.419 0 0 0 .5-1.206l2.286-.423a.9.9 0 0 0 .729-.783 10.122 10.122 0 0 0 .004-2.556zM19.854 43.2v.414l-2.16.4a.9.9 0 0 0-.711.675 6.1 6.1 0 0 1-.747 1.8.9.9 0 0 0 0 .981l1.242 1.8a5.983 5.983 0 0 1-.585.585l-1.8-1.242a.9.9 0 0 0-.981 0 6.1 6.1 0 0 1-1.8.747.9.9 0 0 0-.675.711l-.423 2.129h-.828l-.4-2.16a.9.9 0 0 0-.675-.711 6.1 6.1 0 0 1-1.8-.747.9.9 0 0 0-.981 0l-1.8 1.242a5.982 5.982 0 0 1-.585-.585l1.242-1.8a.9.9 0 0 0 0-.981 6.1 6.1 0 0 1-.747-1.8.9.9 0 0 0-.711-.675L1.8 43.614v-.828l2.16-.4a.9.9 0 0 0 .711-.675 6.1 6.1 0 0 1 .747-1.8.9.9 0 0 0 0-.981l-1.242-1.8a5.982 5.982 0 0 1 .585-.585l1.8 1.242a.9.9 0 0 0 .981 0 6.1 6.1 0 0 1 1.8-.747.9.9 0 0 0 .675-.711l.4-2.16h.828l.4 2.16a.9.9 0 0 0 .675.711 6.1 6.1 0 0 1 1.8.747.9.9 0 0 0 .981 0l1.8-1.242a5.982 5.982 0 0 1 .585.585l-1.242 1.8a.9.9 0 0 0 0 .981 6.1 6.1 0 0 1 .747 1.8.9.9 0 0 0 .711.675l2.16.4z" class="cls-5"/>
                    </g>
                </g>
                <g id="Group_705">
                    <g id="Group_704">
                        <path id="Rectangle_304" d="M0 0H1.8V1.8H0z" class="cls-5" transform="rotate(-64.519 16.245 -13.248)"/>
                    </g>
                </g>
                <g id="Group_707">
                    <g id="Group_706">
                        <path id="Rectangle_305" d="M0 0H1.8V1.8H0z" class="cls-5" transform="rotate(-64.53 24.786 -18.645)"/>
                    </g>
                </g>
                <g id="Group_709">
                    <g id="Group_708">
                        <path id="Rectangle_306" d="M0 0H1.8V1.8H0z" class="cls-5" transform="rotate(-64.53 19.09 -15.04)"/>
                    </g>
                </g>
                <g id="Group_711">
                    <g id="Group_710">
                        <path id="Rectangle_307" d="M0 0H1.8V1.8H0z" class="cls-5" transform="rotate(-64.53 30.485 -22.243)"/>
                    </g>
                </g>
                <g id="Group_713">
                    <g id="Group_712">
                        <path id="Rectangle_308" d="M0 0H1.8V1.8H0z" class="cls-5" transform="rotate(-64.53 27.638 -20.448)"/>
                    </g>
                </g>
                <g id="Group_715">
                    <g id="Group_714">
                        <path id="Rectangle_309" d="M0 0H1.8V1.8H0z" class="cls-5" transform="rotate(-64.53 21.938 -16.85)"/>
                    </g>
                </g>
                <g id="Group_717">
                    <g id="Group_716">
                        <path id="Path_312" d="M26.523 26.757l-.864-1.575-1.575.864.315.576-.639 1.332 1.629.774.774-1.62-.144-.072z" class="cls-5"/>
                    </g>
                </g>
                <g id="Group_719">
                    <g id="Group_718">
                        <path id="Rectangle_310" d="M0 0H1.8V1.8H0z" class="cls-5" transform="rotate(-64.519 28.33 -1.235)"/>
                    </g>
                </g>
                <g id="Group_721">
                    <g id="Group_720">
                        <path id="Rectangle_311" d="M0 0H1.8V1.8H0z" class="cls-5" transform="rotate(-64.519 36.883 -6.646)"/>
                    </g>
                </g>
                <g id="Group_723">
                    <g id="Group_722">
                        <path id="Rectangle_312" d="M0 0H1.8V1.8H0z" class="cls-5" transform="rotate(-64.519 39.737 -8.449)"/>
                    </g>
                </g>
                <g id="Group_725">
                    <g id="Group_724">
                        <path id="Rectangle_313" d="M0 0H1.8V1.8H0z" class="cls-5" transform="rotate(-64.519 25.48 .56)"/>
                    </g>
                </g>
                <g id="Group_727">
                    <g id="Group_726">
                        <path id="Rectangle_314" d="M0 0H1.8V1.8H0z" class="cls-5" transform="rotate(-28.81 96.507 -38.768)"/>
                    </g>
                </g>
                <g id="Group_729">
                    <g id="Group_728">
                        <path id="Rectangle_315" d="M0 0H1.8V1.8H0z" class="cls-5" transform="rotate(-28.84 92.89 -52.748)"/>
                    </g>
                </g>
                <g id="Group_731">
                    <g id="Group_730">
                        <path id="Rectangle_316" d="M0 0H1.8V1.8H0z" class="cls-5" transform="rotate(-28.84 98.278 -31.733)"/>
                    </g>
                </g>
                <g id="Group_733">
                    <g id="Group_732">
                        <path id="Rectangle_317" d="M0 0H1.8V1.8H0z" class="cls-5" transform="rotate(-28.803 94.722 -45.812)"/>
                    </g>
                </g>
                <g id="Group_735">
                    <g id="Group_734">
                        <path id="Rectangle_318" d="M0 0H1.8V1.8H0z" class="cls-5" transform="rotate(-28.81 101.901 -17.748)"/>
                    </g>
                </g>
                <g id="Group_737">
                    <g id="Group_736">
                        <path id="Rectangle_319" d="M0 0H1.8V1.8H0z" class="cls-5" transform="rotate(-28.84 100.08 -24.708)"/>
                    </g>
                </g>
                <g id="Group_739">
                    <g id="Group_738">
                        <path id="Path_313" d="M22.5 26.919l-.315.171.729-1.53-1.629-.774-.774 1.62 1.566.747-1.152.63.864 1.575 1.584-.864z" class="cls-5"/>
                    </g>
                </g>
                <g id="Group_741">
                    <g id="Group_740">
                        <path id="Rectangle_320" d="M0 0H1.8V1.8H0z" class="cls-5" transform="rotate(-28.81 59.141 -47.857)"/>
                    </g>
                </g>
                <g id="Group_743">
                    <g id="Group_742">
                        <path id="Rectangle_321" d="M0 0H1.8V1.8H0z" class="cls-5" transform="rotate(-28.84 68.118 -12.797)"/>
                    </g>
                </g>
                <g id="Group_745">
                    <g id="Group_744">
                        <path id="Rectangle_322" d="M0 0H1.8V1.8H0z" class="cls-5" transform="rotate(-28.84 66.345 -19.783)"/>
                    </g>
                </g>
                <g id="Group_747">
                    <g id="Group_746">
                        <path id="Rectangle_323" d="M0 0H1.8V1.8H0z" class="cls-5" transform="rotate(-28.81 60.945 -40.863)"/>
                    </g>
                </g>
                <g id="Group_749">
                    <g id="Group_748">
                        <path id="Path_314" d="M10.8 6.3a4.5 4.5 0 1 0 4.5 4.5 4.5 4.5 0 0 0-4.5-4.5zm0 7.2a2.7 2.7 0 1 1 2.7-2.7 2.7 2.7 0 0 1-2.7 2.7z" class="cls-5"/>
                    </g>
                </g>
                <g id="Group_751">
                    <g id="Group_750">
                        <path id="Path_315" d="M43.2 22.5a4.5 4.5 0 1 0 4.5 4.5 4.5 4.5 0 0 0-4.5-4.5zm0 7.2a2.7 2.7 0 1 1 2.7-2.7 2.7 2.7 0 0 1-2.7 2.7z" class="cls-5"/>
                    </g>
                </g>
                <g id="Group_753">
                    <g id="Group_752">
                        <path id="Path_316" d="M10.8 38.7a4.5 4.5 0 1 0 4.5 4.5 4.5 4.5 0 0 0-4.5-4.5zm0 7.2a2.7 2.7 0 1 1 2.7-2.7 2.7 2.7 0 0 1-2.7 2.7z" class="cls-5"/>
                    </g>
                </g>
            </g>
        </g>
    </g>
</svg>
