<svg xmlns="http://www.w3.org/2000/svg" width="60" height="60" viewBox="0 0 60 60">
    <defs>
        <clipPath id="3vodbes92a">
            <path fill="#fff" stroke="#707070" d="M0 0H54V54H0z" transform="translate(865 146)"/>
        </clipPath>
    </defs>
    <g transform="translate(-140 -1323)">
        <circle cx="7" cy="7" r="7" fill="#FF7B22" transform="translate(163 1343)"/>
        <g clip-path="url(#3vodbes92a)" transform="translate(-722 1180)">
            <path fill="#fff" d="M12.118 33.12a7.2 7.2 0 1 0 2.865 10.48l6.8 3.4a7.2 7.2 0 1 0 12.98-2.43l9.557-9.993a7.2 7.2 0 1 0-.128-11.458l-9.711-9.711a7.2 7.2 0 1 0-12.7-2.816L15.4 12.918a7.2 7.2 0 1 0-3.521 9.877l3.313 5.576zM9 45a5.4 5.4 0 1 1 5.4-5.4A5.405 5.405 0 0 1 9 45zm6.785-3.014a7.151 7.151 0 0 0-2.155-7.891l2.588-4 7.8 13.132a7.226 7.226 0 0 0-1.61 2.073zM28.8 16.2a7.158 7.158 0 0 0 4.408-1.519l9.712 9.712a7.168 7.168 0 0 0-1.269 2.555L36 26.17v-.07a7.2 7.2 0 0 0-13.183-4l-1.074-.536 3.94-6.085a7.141 7.141 0 0 0 3.117.72zm.9 25.262v-8.225a7.209 7.209 0 0 0 6.05-5.285l5.654.778v.07a7.16 7.16 0 0 0 1.616 4.536l-9.45 9.881a7.169 7.169 0 0 0-3.87-1.755zM28.8 20.7a5.4 5.4 0 1 1-5.4 5.4 5.405 5.405 0 0 1 5.4-5.4zm-6.785 3.014a7.173 7.173 0 0 0 5.885 9.524v8.225a7.141 7.141 0 0 0-2.392.742l-8.2-13.794 3.448-5.324zM28.8 54a5.4 5.4 0 1 1 5.4-5.4 5.405 5.405 0 0 1-5.4 5.4zm19.8-30.6a5.4 5.4 0 1 1-5.4 5.4 5.405 5.405 0 0 1 5.4-5.4zM28.8 3.6A5.4 5.4 0 1 1 23.4 9a5.405 5.405 0 0 1 5.4-5.4zm-6.4 8.682a7.249 7.249 0 0 0 1.77 2.223l-4.046 6.25-4.338-2.169a7.039 7.039 0 0 0 .231-3.978zM3.6 16.2A5.4 5.4 0 1 1 9 21.6a5.405 5.405 0 0 1-5.4-5.4zm9.824 5.669a7.26 7.26 0 0 0 1.56-1.67l4.155 2.077-2.854 4.407z" transform="translate(863.2 144.2)"/>
        </g>
    </g>
</svg>
