<svg xmlns="http://www.w3.org/2000/svg" id="Component_20_2" width="60" height="60" viewBox="0 0 60 60">
    <defs>
        <clipPath id="clip-path">
            <path id="Rectangle_303" fill="#fff" stroke="#707070" d="M0 0H54V54H0z" transform="translate(1198 212)"/>
        </clipPath>
        <style>
            .cls-5{fill:#fff}
        </style>
    </defs>
    <g id="Group_1021" transform="translate(-1188 -209)">
        <path id="Path_276" fill="#1aaf71" d="M9552.613 240.416l11.414-11.5 1.644 1.37h3.743l1.37 1.461-6.757 7.579 2.282 1.1h3.1l2.283-1.1.548-.639 8.583 8.4v1.735l-9.679 10.866-3.379.365-.73-.913 4.657-5.479v-1.187s-1.369-1-1.644-1.187-1.644-.73-1.644-.73l-.64-1.735a1.43 1.43 0 0 0-.73-.457c-.548-.183-1.826-.73-1.826-.73s.365-1.1 0-1.278-2.009-1.37-2.009-1.37l-.456-1.37-1.735-.365-4.656 4.748-3.744-4.383z" transform="translate(-8350)"/>
        <g id="Mask_Group_45" clip-path="url(#clip-path)" transform="translate(-7)">
            <g id="handshake" transform="translate(1198 212)">
                <g id="Group_635">
                    <g id="Group_634">
                        <path id="Path_277" d="M6.753 14.684a2.639 2.639 0 1 0 2.639 2.639 2.642 2.642 0 0 0-2.639-2.639zm0 3.519a.88.88 0 1 1 .88-.88.881.881 0 0 1-.88.877z" class="cls-5"/>
                    </g>
                </g>
                <g id="Group_637">
                    <g id="Group_636">
                        <path id="Path_278" d="M54 22.344L52.756 21.1 40.167 33.689c-.048-.054-.085-.114-.136-.166l-7.4-7.4 1.137-1.137-1.244-1.244-2.612 2.612a4.194 4.194 0 0 1-5.179.58l6.393-6.343L47.841 3.87 46.6 2.626 30.505 18.718l-1.137-1.137a.877.877 0 0 0-.622-.258h-3.155l-1.5-1.5L11.773 3.505l-1.244 1.244 8.171 8.175L7.453 24.176l-6.264-5.742L0 19.732l10.272 9.415V31.4a.877.877 0 0 0 .258.622l3.8 3.8a2.728 2.728 0 0 0 2.105 4.361 2.738 2.738 0 0 0 2.639 2.639 2.738 2.738 0 0 0 2.639 2.639 2.737 2.737 0 0 0 3.811 2.439l.067.067a3.518 3.518 0 0 0 4.977 0l9.463-9.467a3.5 3.5 0 0 0 1.031-2.488 3.549 3.549 0 0 0-.062-.665zM8.751 25.366l11.2-11.2 2.275 2.275-11.1 11.1zm8.482 12.781a.987.987 0 0 1-1.4-1.4l4.186-4.186a.987.987 0 0 1 1.4 1.4zm2.639 2.639a.987.987 0 0 1-1.4-1.4l4.186-4.186a.987.987 0 0 1 1.4 1.4zm2.639 2.639a.987.987 0 0 1-1.4-1.4l4.189-4.18a.987.987 0 0 1 1.4 1.4zm2.639 2.639a.987.987 0 0 1-1.4-1.4l4.186-4.186a.987.987 0 0 1 1.4 1.4zm13.636-8.81l-9.463 9.463a1.8 1.8 0 0 1-2.4.068l3.662-3.662a2.741 2.741 0 0 0-1.846-4.677 2.738 2.738 0 0 0-2.639-2.639 2.738 2.738 0 0 0-2.639-2.639 2.74 2.74 0 0 0-4.677-1.845l-3.23 3.23-3.519-3.519v-1.91l11.432-11.437 1.133 1.138a.877.877 0 0 0 .622.258h3.155l.877.877-6.466 6.416a.88.88 0 0 0 0 1.251 5.949 5.949 0 0 0 8.359-.033l.23-.23 7.4 7.4a1.76 1.76 0 0 1 0 2.489z" class="cls-5"/>
                    </g>
                </g>
                <g id="Group_639">
                    <g id="Group_638">
                        <path id="Path_279" d="M6.134 38.383l-1.544.845c.289.529.6 1.056.931 1.565L7 39.84c-.305-.475-.6-.965-.866-1.457z" class="cls-5"/>
                    </g>
                </g>
                <g id="Group_641">
                    <g id="Group_640">
                        <path id="Path_280" d="M18.687 49.262l-.617 1.648c.564.211 1.145.4 1.73.575l.494-1.688c-.542-.159-1.083-.339-1.607-.535z" class="cls-5"/>
                    </g>
                </g>
                <g id="Group_643">
                    <g id="Group_642">
                        <path id="Path_281" d="M12.751 46.015l-1.057 1.408c.484.363.988.713 1.5 1.041l.952-1.48c-.477-.305-.946-.631-1.395-.969z" class="cls-5"/>
                    </g>
                </g>
                <g id="Group_645">
                    <g id="Group_644">
                        <path id="Path_282" d="M15.6 47.852l-.843 1.548c.53.289 1.078.565 1.629.817l.733-1.6c-.513-.24-1.019-.496-1.519-.765z" class="cls-5"/>
                    </g>
                </g>
                <g id="Group_647">
                    <g id="Group_646">
                        <path id="Path_283" d="M10.188 43.793l-1.245 1.243c.428.428.876.846 1.333 1.242l1.153-1.329c-.429-.369-.842-.758-1.241-1.156z" class="cls-5"/>
                    </g>
                </g>
                <g id="Group_649">
                    <g id="Group_648">
                        <path id="Path_284" d="M7.967 41.231l-1.408 1.056c.364.486.749.962 1.143 1.417l1.329-1.153c-.366-.423-.724-.868-1.064-1.32z" class="cls-5"/>
                    </g>
                </g>
                <g id="Group_651">
                    <g id="Group_650">
                        <path id="Path_285" d="M3.294 28.7l-1.755.125c.042.6.107 1.211.193 1.81l1.742-.248c-.08-.56-.141-1.127-.18-1.687z" class="cls-5"/>
                    </g>
                </g>
                <g id="Group_653">
                    <g id="Group_652">
                        <path id="Path_286" d="M1.539 25.182c-.043.6-.064 1.21-.064 1.818h1.759c0-.567.02-1.137.06-1.693z" class="cls-5"/>
                    </g>
                </g>
                <g id="Group_655">
                    <g id="Group_654">
                        <path id="Path_287" d="M3.772 32.053l-1.719.374c.128.592.28 1.186.45 1.765l1.688-.492c-.157-.542-.298-1.1-.419-1.647z" class="cls-5"/>
                    </g>
                </g>
                <g id="Group_657">
                    <g id="Group_656">
                        <path id="Path_288" d="M4.726 35.3l-1.649.616c.211.565.445 1.13.7 1.68l1.6-.731c-.237-.508-.455-1.034-.651-1.565z" class="cls-5"/>
                    </g>
                </g>
                <g id="Group_659">
                    <g id="Group_658">
                        <path id="Path_289" d="M48.6 36.869c-.236.514-.492 1.024-.762 1.518l1.544.845c.289-.53.565-1.078.817-1.629z" class="cls-5"/>
                    </g>
                </g>
                <g id="Group_661">
                    <g id="Group_660">
                        <path id="Path_290" d="M46.97 39.845c-.306.475-.633.943-.969 1.393l1.408 1.057c.362-.482.713-.986 1.042-1.5z" class="cls-5"/>
                    </g>
                </g>
                <g id="Group_663">
                    <g id="Group_662">
                        <path id="Path_291" d="M44.934 42.557c-.369.426-.757.844-1.156 1.241l1.243 1.245c.428-.428.846-.876 1.242-1.333z" class="cls-5"/>
                    </g>
                </g>
                <g id="Group_665">
                    <g id="Group_664">
                        <path id="Path_292" d="M49.783 33.693c-.159.541-.339 1.082-.535 1.608l1.648.616c.212-.566.4-1.148.575-1.73z" class="cls-5"/>
                    </g>
                </g>
                <g id="Group_667">
                    <g id="Group_666">
                        <path id="Path_293" d="M50.5 30.382c-.08.56-.181 1.121-.3 1.669l1.72.372c.128-.589.236-1.191.321-1.793z" class="cls-5"/>
                    </g>
                </g>
                <g id="Group_669">
                    <g id="Group_668">
                        <path id="Path_294" d="M42.536 44.955c-.424.368-.868.726-1.32 1.065l1.056 1.408c.485-.363.962-.748 1.417-1.143z" class="cls-5"/>
                    </g>
                </g>
                <g id="Group_671">
                    <g id="Group_670">
                        <path id="Path_295" d="M21.938 50.216l-.372 1.719c.589.128 1.191.236 1.793.321l.248-1.741c-.56-.08-1.121-.181-1.669-.299z" class="cls-5"/>
                    </g>
                </g>
                <g id="Group_673">
                    <g id="Group_672">
                        <path id="Path_296" d="M50.739 27c0 .566-.019 1.137-.059 1.7l1.755.124c.042-.6.063-1.213.063-1.819h-1.759z" class="cls-5"/>
                    </g>
                </g>
                <g id="Group_675">
                    <g id="Group_674">
                        <path id="Path_297" d="M30.371 50.513c-.558.079-1.125.14-1.687.179l.125 1.755c.6-.042 1.211-.107 1.81-.193z" class="cls-5"/>
                    </g>
                </g>
                <g id="Group_677">
                    <g id="Group_676">
                        <path id="Path_298" d="M26.986 50.753c-.566 0-1.135-.019-1.693-.059l-.124 1.755c.6.042 1.212.063 1.818.063z" class="cls-5"/>
                    </g>
                </g>
                <g id="Group_679">
                    <g id="Group_678">
                        <path id="Path_299" d="M39.825 46.987c-.472.3-.962.595-1.457.866l.845 1.544c.531-.291 1.057-.6 1.564-.93z" class="cls-5"/>
                    </g>
                </g>
                <g id="Group_681">
                    <g id="Group_680">
                        <path id="Path_300" d="M36.854 48.612c-.513.234-1.039.453-1.564.648l.615 1.649c.565-.211 1.13-.445 1.68-.7z" class="cls-5"/>
                    </g>
                </g>
                <g id="Group_683">
                    <g id="Group_682">
                        <path id="Path_301" d="M33.682 49.8c-.539.157-1.092.3-1.644.419l.374 1.719c.592-.128 1.186-.28 1.765-.45z" class="cls-5"/>
                    </g>
                </g>
                <g id="Group_685">
                    <g id="Group_684">
                        <path id="Path_302" d="M37.248 3.719L36.473 5.3c.488.239.991.509 1.493.8l.887-1.52c-.539-.313-1.079-.603-1.605-.861z" class="cls-5"/>
                    </g>
                </g>
                <g id="Group_687">
                    <g id="Group_686">
                        <path id="Path_303" d="M26.986 1.488h-.368l.026 1.759h.342q.7 0 1.362.032l.083-1.758c-.471-.021-.951-.033-1.445-.033z" class="cls-5"/>
                    </g>
                </g>
                <g id="Group_689">
                    <g id="Group_688">
                        <path id="Path_304" d="M33.834 2.388l-.494 1.689c.532.156 1.067.338 1.59.542l.641-1.638c-.571-.224-1.154-.422-1.737-.593z" class="cls-5"/>
                    </g>
                </g>
                <g id="Group_691">
                    <g id="Group_690">
                        <path id="Path_305" d="M30.244 1.668l-.2 1.747c.568.067 1.13.155 1.668.262l.343-1.726c-.587-.115-1.195-.21-1.811-.283z" class="cls-5"/>
                    </g>
                </g>
                <g id="Group_693">
                    <g id="Group_692">
                        <path id="Path_306" d="M17.724 3.221c-.564.22-1.126.463-1.671.722l.754 1.59c.508-.241 1.033-.468 1.558-.673z" class="cls-5"/>
                    </g>
                </g>
                <g id="Group_695">
                    <g id="Group_694">
                        <path id="Path_307" d="M21.2 2.147c-.59.137-1.182.3-1.759.475l.52 1.681c.536-.166 1.086-.315 1.636-.443z" class="cls-5"/>
                    </g>
                </g>
                <g id="Group_697">
                    <g id="Group_696">
                        <path id="Path_308" d="M24.8 1.58c-.6.052-1.213.125-1.809.219l.274 1.738c.553-.088 1.12-.157 1.683-.2z" class="cls-5"/>
                    </g>
                </g>
            </g>
        </g>
    </g>
</svg>
