<svg xmlns="http://www.w3.org/2000/svg" id="Component_35_2" width="21" height="20" viewBox="0 0 21 20">
    <defs>
        <clipPath id="clip-path">
            <path id="Rectangle_61" d="M0 0H21V20H0z" class="cls-1" transform="translate(1372 1030)"/>
        </clipPath>
        <style>
            .cls-1{fill:#fff}
        </style>
    </defs>
    <g id="Mask_Group_16" clip-path="url(#clip-path)" transform="translate(-1372 -1030)">
        <path id="keybase-brands" d="M12.775 18.705a.8.8 0 1 0 .8.8.8.8 0 0 0-.8-.8zm5-6.589a9.557 9.557 0 0 0-3.9-3.291q-.406-.181-.821-.325a3.5 3.5 0 0 0-2.137-4.649 4.377 4.377 0 0 0-1.447-.258c-.027-.089-.084-.491.42-1.562l-1.022-.6-.245.337c-.388.538-.755 1.051-1.087 1.558a2.277 2.277 0 0 0-.37-.056c-1.854-.109-1.741-.1-1.833-.1a2.236 2.236 0 0 0-2.264 2.042L2.963 6.85A2.223 2.223 0 0 0 5.09 9.164l.4.024a9.554 9.554 0 0 0-2.067 1.587C.625 13.6.625 16.7.625 19.186v1.5l1.041-1.33a6.634 6.634 0 0 0 .65 1.677.666.666 0 0 0 .877.327c.188-.083.446-.309.167-.9a7.959 7.959 0 0 1-.7-2.372l2.09-2.671-1.1 3.308a13.091 13.091 0 0 1 10.547-1.723 3.354 3.354 0 0 0 3.783-1.064c.032-.045.054-.1.083-.144a6.969 6.969 0 0 1 .125 1.269 10.248 10.248 0 0 1-.664 3.645.536.536 0 0 0 .384.7.742.742 0 0 0 .82-.5 10.924 10.924 0 0 0 .652-3.85 8.848 8.848 0 0 0-1.6-4.952zM6.356 5.74l-.7-.042-.062.973.586.035a4.152 4.152 0 0 0 .014.874l-1-.06a.548.548 0 0 1-.525-.571l.108-1.637a.558.558 0 0 1 .592-.505l1.3.077a6.444 6.444 0 0 0-.312.856zm6.626 7.687a.469.469 0 0 1-.641-.062l-.432-.513-1.537 1.205a.361.361 0 0 1-.5-.048l-.7-.832a.329.329 0 0 1 .06-.462l1.542-1.215-.631-.747-.763.6a.346.346 0 0 1-.473-.045l-.17-.2a.329.329 0 0 1 .061-.462l.755-.593-.83-.988a.427.427 0 0 1 .078-.6.463.463 0 0 1 .638.061l3.62 4.3a.428.428 0 0 1-.077.601zm-4.614 5.278a.8.8 0 1 0 .8.8.8.8 0 0 0-.8-.8z" class="cls-1" transform="translate(1372.5 1028.571)"/>
    </g>
</svg>
