<svg xmlns="http://www.w3.org/2000/svg" id="Component_22_2" width="60" height="60" viewBox="0 0 60 60">
    <defs>
        <clipPath id="clip-path">
            <path id="Rectangle_328" fill="#fff" stroke="#707070" d="M0 0H54V54H0z" transform="translate(1198 670)"/>
        </clipPath>
        <style>
            .cls-5{fill:#fff}
        </style>
    </defs>
    <g id="Group_1019" transform="translate(-1188 -667)">
        <circle id="Ellipse_26" cx="17.5" cy="17.5" r="17.5" fill="#FF7B22" transform="translate(1200 680)"/>
        <g id="Mask_Group_47" clip-path="url(#clip-path)" transform="translate(-7)">
            <g id="repeat" transform="translate(1198 670)">
                <g id="Group_755">
                    <g id="Group_754">
                        <path id="Path_317" d="M27 0a27 27 0 1 0 27 27A27.031 27.031 0 0 0 27 0zm18.9 14.4v-4.042a25.091 25.091 0 0 1 6.291 16.278L48.6 30.227l-3.62-3.62A17.9 17.9 0 0 0 40.651 15.3H45a.9.9 0 0 0 .9-.9zM43.2 27A16.2 16.2 0 1 1 27 10.8 16.219 16.219 0 0 1 43.2 27zm.9-18.489V13.5h-5.233a17.914 17.914 0 0 0-9.819-4.375l3.089-3.089a.9.9 0 0 0 0-1.273l-2.856-2.855A25.11 25.11 0 0 1 44.1 8.511zm-17.464-6.7L30.227 5.4l-3.62 3.62A17.88 17.88 0 0 0 16.2 12.634V8.1a.9.9 0 0 0-.9-.9h-3.86a25.062 25.062 0 0 1 15.196-5.391zM9.388 9H14.4v5.167a17.953 17.953 0 0 0-5.275 10.785l-3.089-3.088a.9.9 0 0 0-1.273 0l-2.855 2.855A25.133 25.133 0 0 1 9.388 9zM7.2 38.7v3.86a25.064 25.064 0 0 1-5.391-15.2L5.4 23.773l3.62 3.62A17.88 17.88 0 0 0 12.634 37.8H8.1a.9.9 0 0 0-.9.9zM9 44.612V39.6h5.167a17.953 17.953 0 0 0 10.786 5.275l-3.089 3.089a.9.9 0 0 0 0 1.273l2.856 2.856A25.133 25.133 0 0 1 9 44.612zm18.364 7.579L23.773 48.6l3.62-3.62A17.88 17.88 0 0 0 37.8 41.366V45a.9.9 0 0 0 .9.9h4.942a25.091 25.091 0 0 1-16.278 6.291zM45.489 44.1H39.6v-4.267a17.953 17.953 0 0 0 5.275-10.786l3.089 3.089a.9.9 0 0 0 1.273 0l2.856-2.856a25.11 25.11 0 0 1-6.604 14.82z" class="cls-5"/>
                    </g>
                </g>
                <g id="Group_757">
                    <g id="Group_756">
                        <path id="Path_318" d="M36.264 24.564L35.1 25.727V21.6a2.7 2.7 0 0 0-2.7-2.7H21.6a2.7 2.7 0 0 0-2.7 2.7v1.8h1.8v-1.8a.9.9 0 0 1 .9-.9h10.8a.9.9 0 0 1 .9.9v4.127l-1.164-1.164-1.273 1.273 2.7 2.7a.9.9 0 0 0 1.273 0l2.7-2.7z" class="cls-5"/>
                    </g>
                </g>
                <g id="Group_759">
                    <g id="Group_758">
                        <path id="Path_319" d="M33.3 30.6v1.8a.9.9 0 0 1-.9.9H21.6a.9.9 0 0 1-.9-.9v-4.127l1.164 1.164 1.273-1.273-2.7-2.7a.9.9 0 0 0-1.273 0l-2.7 2.7 1.273 1.273 1.163-1.164V32.4a2.7 2.7 0 0 0 2.7 2.7h10.8a2.7 2.7 0 0 0 2.7-2.7v-1.8z" class="cls-5"/>
                    </g>
                </g>
                <g id="Group_761">
                    <g id="Group_760">
                        <path id="Rectangle_325" d="M0 0H1.8V1.8H0z" class="cls-5" transform="translate(26.1 22.5)"/>
                    </g>
                </g>
                <g id="Group_763">
                    <g id="Group_762">
                        <path id="Rectangle_326" d="M0 0H1.8V1.8H0z" class="cls-5" transform="translate(26.1 26.1)"/>
                    </g>
                </g>
                <g id="Group_765">
                    <g id="Group_764">
                        <path id="Rectangle_327" d="M0 0H1.8V1.8H0z" class="cls-5" transform="translate(26.1 29.7)"/>
                    </g>
                </g>
            </g>
        </g>
    </g>
</svg>
