<svg xmlns="http://www.w3.org/2000/svg" id="Component_16_2" width="60" height="60" viewBox="0 0 60 60">
    <defs>
        <clipPath id="clip-path">
            <path id="Rectangle_262" fill="#fff" stroke="#707070" d="M0 0H54V54H0z" transform="translate(865 374)"/>
        </clipPath>
        <style>
            .cls-5{fill:#fff}
        </style>
    </defs>
    <path id="Rectangle_674" fill="#fff" d="M0 0H60V60H0z" opacity="0.04"/>
    <g id="Group_1202" transform="translate(-1023 -3612)">
        <g id="Group_1201" transform="translate(176 2293)">
            <circle id="Ellipse_23" cx="7" cy="7" r="7" fill="#FF7B22" transform="translate(890 1362)"/>
            <g id="Mask_Group_41" clip-path="url(#clip-path)" transform="translate(-15 948)">
                <g id="continuous" transform="translate(863.2 372.201)">
                    <path id="Path_249" d="M8.1 9.527L6.936 8.363 5.664 9.636l1.8 1.8a.9.9 0 0 0 1.273 0l4.5-4.5-1.274-1.272z" class="cls-5"/>
                    <path id="Path_250" d="M26.1 9.527l-1.165-1.164-1.272 1.273 1.8 1.8a.9.9 0 0 0 1.273 0l4.5-4.5-1.273-1.272z" class="cls-5"/>
                    <path id="Path_251" d="M44.1 9.527l-1.165-1.164-1.273 1.273 1.8 1.8a.9.9 0 0 0 1.273 0l4.5-4.5-1.273-1.272z" class="cls-5"/>
                    <path id="Path_252" d="M11.7 51.3a.9.9 0 0 0 .636-.264l4.5-4.5-1.273-1.273-3.863 3.863-1.164-1.164-1.273 1.273 1.8 1.8a.9.9 0 0 0 .636.264z" class="cls-5"/>
                    <path id="Path_253" d="M29.7 51.3a.9.9 0 0 0 .636-.264l4.5-4.5-1.273-1.273-3.863 3.863-1.164-1.164-1.273 1.273 1.8 1.8a.9.9 0 0 0 .637.265z" class="cls-5"/>
                    <path id="Path_254" d="M47.7 51.3a.9.9 0 0 0 .636-.264l4.5-4.5-1.273-1.273-3.863 3.863-1.164-1.164-1.273 1.273 1.8 1.8a.9.9 0 0 0 .637.265z" class="cls-5"/>
                    <path id="Path_255" d="M55.8 25.2V12.6a4.5 4.5 0 0 0-3.649-4.413 7.195 7.195 0 0 0-14.29-.087h-3.725a7.193 7.193 0 0 0-14.274 0h-3.726a7.2 7.2 0 1 0 0 1.8h3.725a7.193 7.193 0 0 0 14.275 0h3.725a7.192 7.192 0 0 0 14.254.139A2.7 2.7 0 0 1 54 12.6v12.6a2.7 2.7 0 0 1-2.7 2.7H36.371l2.064-2.064-1.273-1.273-3.336 3.337h-4.654l2.064-2.064-1.273-1.273-3.336 3.337h-4.655l2.064-2.064-1.273-1.273-3.336 3.337H6.3a4.5 4.5 0 0 0-4.5 4.5V45a4.5 4.5 0 0 0 3.649 4.413 7.195 7.195 0 0 0 14.288.086h3.725a7.193 7.193 0 0 0 14.275 0h3.725a7.2 7.2 0 1 0 0-1.8h-3.724a7.193 7.193 0 0 0-14.275 0h-3.726a7.192 7.192 0 0 0-14.254-.139A2.7 2.7 0 0 1 3.6 45V32.4a2.7 2.7 0 0 1 2.7-2.7h13.127l3.336 3.336 1.273-1.273-2.064-2.063h4.655l3.336 3.336 1.273-1.273-2.064-2.063h4.655l3.336 3.336 1.273-1.273-2.065-2.063H51.3a4.5 4.5 0 0 0 4.5-4.5zM9 14.4A5.4 5.4 0 1 1 14.4 9 5.405 5.405 0 0 1 9 14.4zm18 0A5.4 5.4 0 1 1 32.4 9a5.405 5.405 0 0 1-5.4 5.4zm18 0A5.4 5.4 0 1 1 50.4 9a5.405 5.405 0 0 1-5.4 5.4zm3.6 28.8a5.4 5.4 0 1 1-5.4 5.4 5.405 5.405 0 0 1 5.4-5.4zm-18 0a5.4 5.4 0 1 1-5.4 5.4 5.405 5.405 0 0 1 5.4-5.4zm-18 0a5.4 5.4 0 1 1-5.4 5.4 5.405 5.405 0 0 1 5.4-5.4z" class="cls-5"/>
                </g>
            </g>
        </g>
    </g>
</svg>
