<svg xmlns="http://www.w3.org/2000/svg" id="Component_37_2" width="20" height="20" viewBox="0 0 20 20">
    <defs>
        <clipPath id="clip-path">
            <path id="Rectangle_60" d="M0 0H20V20H0z" class="cls-1" transform="translate(1433 1030)"/>
        </clipPath>
        <style>
            .cls-1{fill:#fff}
        </style>
    </defs>
    <g id="Mask_Group_15" clip-path="url(#clip-path)" transform="translate(-1433 -1030)">
        <path id="envelope-solid" d="M19.621 7.453a.235.235 0 0 1 .379.184v7.988a1.875 1.875 0 0 1-1.875 1.875H1.875A1.875 1.875 0 0 1 0 15.625V7.641a.234.234 0 0 1 .379-.184C1.254 8.137 2.414 9 6.4 11.895c.824.6 2.215 1.867 3.6 1.859 1.395.012 2.813-1.281 3.605-1.859C17.59 9 18.746 8.133 19.621 7.453zM10 12.5c.906.016 2.211-1.141 2.867-1.617 5.184-3.762 5.578-4.09 6.773-5.027a.935.935 0 0 0 .36-.739v-.742A1.875 1.875 0 0 0 18.125 2.5H1.875A1.875 1.875 0 0 0 0 4.375v.742a.94.94 0 0 0 .359.738c1.2.934 1.59 1.266 6.773 5.027.656.477 1.961 1.633 2.867 1.617z" class="cls-1" transform="translate(1433 1030)"/>
    </g>
</svg>
